<svg width="24" height="24" viewBox="0 0 24 24" fill="none" xmlns="http://www.w3.org/2000/svg">
<g clip-path="url(#clip0_2_2485)">
<path fill-rule="evenodd" clip-rule="evenodd" d="M20.5245 19.432C20.4056 19.4316 20.2823 19.4594 20.1686 19.513C20.0389 19.5655 19.9076 19.6245 19.7846 19.6773L19.6016 19.7528L19.3646 19.8473V19.8507C16.7899 20.8952 14.0854 21.5074 11.5819 21.5611C11.4896 21.5645 11.3978 21.5645 11.3074 21.5645C7.37213 21.5663 4.15951 19.7396 0.918381 17.9407C0.804756 17.8807 0.691131 17.8499 0.577132 17.8499C0.430506 17.8499 0.281631 17.9043 0.172881 18.006C0.0637565 18.108 -0.000743531 18.257 6.46944e-06 18.4081C-0.000743531 18.6047 0.105381 18.7848 0.252756 18.9019C3.29401 21.5427 6.62776 23.9974 11.1101 23.9997C11.1971 23.9997 11.286 23.9974 11.3756 23.9959C14.2271 23.9314 17.4529 22.9687 19.9553 21.3949L19.9695 21.3847C20.2976 21.19 20.6258 20.9661 20.934 20.7196C21.1268 20.5763 21.2588 20.3538 21.2569 20.1223C21.2513 19.7111 20.901 19.432 20.5245 19.432ZM23.9966 17.9737V17.9722C23.9876 17.7216 23.9333 17.531 23.8294 17.3731L23.8193 17.358L23.8069 17.3427C23.7008 17.2267 23.5991 17.1828 23.4885 17.1337C23.16 17.0073 22.6826 16.9401 22.1059 16.9382C21.6923 16.9382 21.2359 16.9773 20.7773 17.077L20.7765 17.047L20.3145 17.2005L20.3066 17.2046L20.046 17.2894L20.0468 17.3014C19.7408 17.4282 19.4618 17.5865 19.2034 17.7734C19.0433 17.8945 18.909 18.0536 18.9011 18.2975C18.8978 18.4299 18.9645 18.5834 19.0778 18.6734C19.1884 18.7638 19.3189 18.7938 19.4325 18.7938C19.4599 18.7938 19.4854 18.7931 19.5083 18.7889L19.5304 18.7871L19.548 18.7841C19.7741 18.7364 20.1026 18.7042 20.4866 18.6498C20.817 18.6137 21.1669 18.5864 21.471 18.5864C21.6866 18.5852 21.8786 18.6002 22.0106 18.6291C22.077 18.6426 22.1273 18.6603 22.1554 18.6741C22.1636 18.6775 22.1708 18.6816 22.1749 18.685C22.1809 18.703 22.1891 18.7499 22.1876 18.8171C22.1914 19.0711 22.0819 19.5427 21.936 20.0019C21.7913 20.4622 21.6158 20.924 21.4995 21.2309C21.4725 21.3015 21.4549 21.3784 21.4549 21.4632C21.4523 21.587 21.5025 21.7363 21.6098 21.835C21.7136 21.9347 21.8479 21.9738 21.9619 21.9738H21.9664C22.1363 21.9719 22.2803 21.9036 22.4051 21.8072C23.577 20.7522 23.9843 19.0707 24.0004 18.1238L23.9966 17.9737Z" fill="#FBB11E"/>
<path d="M18.7383 14.3593C18.1574 13.6164 17.5743 12.9801 17.5743 11.5489V6.78082C17.5743 4.76729 17.7333 2.91207 16.2509 1.53632C15.0329 0.424692 13.1256 0 11.6425 0H11.0065C8.30614 0.157196 5.44602 1.32322 4.81077 4.66261C4.70464 5.08693 5.02302 5.24488 5.23452 5.2974L8.20002 5.66769C8.51839 5.61479 8.67664 5.34917 8.72989 5.08656C8.99427 3.9209 9.94789 3.33676 11.0065 3.23059H11.2191C11.8548 3.23059 12.5425 3.49621 12.9134 4.0267C13.3371 4.66224 13.2846 5.51012 13.2846 6.25221V6.67728C12.5954 6.7283 11.8015 6.78082 11.0065 6.88587C9.78852 7.04719 8.57014 7.25729 7.56439 7.73601C5.60502 8.53024 4.28052 10.2249 4.28052 12.7149C4.28052 15.8427 6.29277 17.4312 8.83564 17.4312C9.68277 17.4312 10.372 17.3242 11.0061 17.1667C12.0134 16.8481 12.8594 16.2659 13.867 15.2045C14.449 16.0003 14.6084 16.372 15.6141 17.2192C15.8793 17.3242 16.144 17.3242 16.3551 17.1667C16.9919 16.6358 18.1045 15.6817 18.6858 15.1531C18.9516 14.9404 18.8984 14.6223 18.7383 14.3593ZM12.7023 12.9805C12.3314 13.7207 11.695 14.1983 11.0065 14.3596C10.9011 14.3596 10.7429 14.4125 10.5828 14.4125C9.41877 14.4125 8.72989 13.5106 8.72989 12.1863C8.72989 10.4901 9.73602 9.69552 11.0065 9.32448C11.6954 9.16578 12.4896 9.1125 13.2846 9.1125V9.74917C13.2846 10.9666 13.3368 11.9195 12.7023 12.9805Z" fill="white"/>
</g>
<defs>
<clipPath id="clip0_2_2485">
<rect width="24" height="24" fill="white"/>
</clipPath>
</defs>
</svg>
