<svg width="23" height="28" viewBox="0 0 23 28" fill="none" xmlns="http://www.w3.org/2000/svg">
<path d="M17.4015 0C17.4666 0 17.5318 0 17.6007 0C17.7605 1.97462 17.0068 3.45005 16.0908 4.51851C15.192 5.57959 13.9613 6.6087 11.9707 6.45255C11.8379 4.50621 12.5928 3.14021 13.5076 2.07421C14.3559 1.08075 15.9113 0.196724 17.4015 0Z" fill="white"/>
<path d="M23.4274 20.5528C23.4274 20.5724 23.4274 20.5897 23.4274 20.6081C22.8679 22.3024 22.07 23.7545 21.0962 25.102C20.2072 26.3254 19.1179 27.9717 17.1728 27.9717C15.492 27.9717 14.3756 26.891 12.653 26.8615C10.8309 26.832 9.8288 27.7652 8.16279 28C7.97221 28 7.78164 28 7.59475 28C6.37137 27.823 5.38406 26.8541 4.66479 25.9811C2.54386 23.4016 0.904898 20.0696 0.599976 15.8056C0.599976 15.3875 0.599976 14.9707 0.599976 14.5527C0.729076 11.501 2.21188 9.01982 4.18281 7.81734C5.22299 7.17799 6.65293 6.63331 8.24517 6.87675C8.92756 6.98249 9.6247 7.2161 10.2358 7.44725C10.8149 7.6698 11.5391 8.06448 12.2251 8.04357C12.6899 8.03005 13.1522 7.78783 13.6207 7.61693C14.9928 7.12143 16.3379 6.55339 18.1109 6.82019C20.2417 7.14233 21.754 8.08907 22.6884 9.54974C20.8859 10.6969 19.4609 12.4256 19.7044 15.3777C19.9207 18.0593 21.4798 19.6282 23.4274 20.5528Z" fill="white"/>
</svg>
