<svg width="43" height="43" viewBox="0 0 43 43" fill="none" xmlns="http://www.w3.org/2000/svg">
<g clip-path="url(#clip0_2_2332)">
<path d="M32.6726 7.79511C31.726 6.89388 30.3534 6.6008 29.1213 7.0368C28.7729 7.15324 28.5191 7.4553 28.4646 7.81856L28.1909 9.69879C27.776 12.5387 25.3461 14.6478 22.476 14.6592H18.567C18.1185 14.6593 17.7276 14.9648 17.6191 15.4L14.6874 27.1268C14.5567 27.6505 14.8754 28.1808 15.399 28.3115C15.4763 28.3307 15.5556 28.3405 15.6352 28.3405H20.5214C20.9699 28.3404 21.3608 28.035 21.4693 27.5998L23.2382 20.5227H27.0494C29.975 20.5324 32.5273 18.5383 33.2255 15.6971L33.9467 12.8064C34.4544 11.0283 33.9677 9.11474 32.6726 7.79511Z" fill="#03A9F4"/>
<path d="M0.976992 40.0674C0.437283 40.0673 -0.000183174 39.6296 5.75387e-08 39.0899C5.75387e-08 39.0103 0.00980296 38.931 0.0290423 38.8537L1.00631 34.9644V34.9233L1.98357 31.0359C2.09214 30.6007 2.48297 30.2953 2.93152 30.2952H5.41761C6.76693 30.2949 7.86092 31.3884 7.86128 32.7377C7.86128 32.9376 7.83682 33.1366 7.78845 33.3305L7.54411 34.3078C7.27228 35.3957 6.29474 36.1589 5.17336 36.1587H2.71843L1.92686 39.3268C1.81812 39.7626 1.42618 40.0682 0.976992 40.0674ZM3.20701 34.204H5.17318C5.39737 34.2033 5.59232 34.0502 5.64619 33.8326L5.89053 32.8554C5.9575 32.5951 5.80066 32.3298 5.54038 32.2629C5.50025 32.2525 5.45902 32.2474 5.41752 32.2476H3.6956L3.20701 34.204Z" fill="#283593"/>
<path d="M11.4275 40.0674H10.036C8.53987 40.0677 7.32678 38.8552 7.32642 37.3591C7.32632 37.1375 7.35353 36.9167 7.40722 36.7018L7.53622 36.1818C7.82545 35.015 8.87491 34.1973 10.077 34.2019H11.4686C12.9646 34.2045 14.1753 35.4194 14.1728 36.9155C14.1724 37.136 14.1451 37.3556 14.0915 37.5694L13.9625 38.0894C13.673 39.2533 12.6269 40.0696 11.4275 40.0674ZM9.30495 37.1767C9.20454 37.5811 9.45099 37.9902 9.85538 38.0906C9.91447 38.1053 9.97503 38.1127 10.036 38.1129H11.4275C11.7288 38.1137 11.9918 37.9089 12.0647 37.6164L12.1937 37.0965C12.2941 36.6921 12.0477 36.283 11.6433 36.1826C11.5842 36.1679 11.5236 36.1605 11.4627 36.1603H10.0711C9.76981 36.1595 9.50687 36.3643 9.43395 36.6568L9.30495 37.1767Z" fill="#283593"/>
<path d="M12.7038 40.0673C12.1641 40.0671 11.7267 39.6294 11.7268 39.0897C11.7268 39.0101 11.7366 38.9308 11.7558 38.8535L12.7331 34.9446C12.8638 34.4205 13.3944 34.1015 13.9185 34.2321C14.4426 34.3628 14.7616 34.8934 14.6309 35.4176L13.6537 39.3265C13.5449 39.7624 13.153 40.0681 12.7038 40.0673Z" fill="#283593"/>
<path d="M24.4307 40.0675C23.891 40.0673 23.4536 39.6296 23.4537 39.0899C23.4537 39.0103 23.4635 38.931 23.4827 38.8537L24.46 34.9644V34.9233L25.4372 31.0359C25.5458 30.6007 25.9366 30.2953 26.3852 30.2952H28.8713C30.2206 30.2949 31.3146 31.3884 31.315 32.7377C31.315 32.9376 31.2905 33.1366 31.2421 33.3305L30.9978 34.3078C30.726 35.3957 29.7484 36.1589 28.627 36.1587H26.1722L25.3806 39.3268C25.2718 39.7627 24.8799 40.0683 24.4307 40.0675ZM26.6607 34.204H28.6289C28.8531 34.2034 29.048 34.0503 29.1019 33.8327L29.3462 32.8555C29.4131 32.5952 29.2563 32.3299 28.9961 32.263C28.9559 32.2526 28.9146 32.2475 28.8732 32.2477H27.1494L26.6607 34.204Z" fill="#03A9F4"/>
<path d="M34.8812 40.0674H33.4896C31.9935 40.0677 30.7805 38.8552 30.7801 37.3591C30.78 37.1375 30.8072 36.9167 30.8609 36.7018L30.9899 36.1818C31.2791 35.015 32.3286 34.1973 33.5307 34.2019H34.9222C36.4183 34.2016 37.6314 35.4141 37.6318 36.9102C37.6319 37.1318 37.6046 37.3526 37.551 37.5675L37.422 38.0874C37.1327 39.2543 36.0833 40.072 34.8812 40.0674ZM32.7586 37.1767C32.6582 37.5811 32.9047 37.9902 33.3091 38.0906C33.3681 38.1053 33.4287 38.1127 33.4896 38.1129H34.8812C35.1825 38.1137 35.4454 37.9089 35.5184 37.6164L35.6474 37.0965C35.7478 36.6921 35.5013 36.283 35.0969 36.1826C35.0378 36.1679 34.9773 36.1605 34.9164 36.1603H33.5248C33.2235 36.1595 32.9605 36.3643 32.8876 36.6568L32.7586 37.1767Z" fill="#03A9F4"/>
<path d="M36.1575 40.0675C35.6178 40.0673 35.1804 39.6297 35.1805 39.09C35.1805 39.0103 35.1903 38.931 35.2095 38.8538L36.1868 34.9448C36.3174 34.4208 36.8481 34.1017 37.3722 34.2324C37.8963 34.363 38.2153 34.8937 38.0846 35.4178L37.1073 39.3268C36.9986 39.7627 36.6067 40.0683 36.1575 40.0675Z" fill="#03A9F4"/>
<path d="M18.5672 39.0903C18.2403 39.0901 17.9352 38.9266 17.7541 38.6545L15.7997 35.7228C15.5001 35.2738 15.6213 34.6669 16.0704 34.3673C16.5195 34.0677 17.1263 34.1889 17.4259 34.638L19.3803 37.5697C19.6803 38.0184 19.56 38.6252 19.1114 38.9254C18.9504 39.033 18.7609 39.0904 18.5672 39.0903Z" fill="#283593"/>
<path d="M16.6127 42.0219C16.073 42.0217 15.6356 41.584 15.6358 41.0443C15.6359 40.8159 15.716 40.5947 15.8622 40.4192L20.7483 34.5558C21.0943 34.1413 21.7108 34.0857 22.1252 34.4316C22.5397 34.7776 22.5953 35.3941 22.2494 35.8085L17.3632 41.672C17.1773 41.8941 16.9024 42.0223 16.6127 42.0219Z" fill="#283593"/>
<path d="M40.0663 40.0674C39.5266 40.0673 39.0893 39.6296 39.0894 39.0899C39.0894 39.0103 39.0992 38.931 39.1184 38.8537L41.0728 31.0359C41.2035 30.5118 41.7341 30.1928 42.2583 30.3235C42.7823 30.4541 43.1013 30.9847 42.9707 31.5089L41.0162 39.3267C40.9076 39.7626 40.5156 40.0683 40.0663 40.0674Z" fill="#03A9F4"/>
<path d="M29.4458 2.66862C28.5068 1.59314 27.1483 0.976655 25.7206 0.97803H14.6583C14.1856 0.97803 13.7808 1.31628 13.6967 1.78132L9.78769 23.2804C9.69159 23.8115 10.0443 24.3199 10.5754 24.416C10.6328 24.4264 10.691 24.4316 10.7493 24.4316H16.6127C17.0613 24.4315 17.4521 24.1261 17.5607 23.6909L19.3314 16.6137H22.4761C26.3201 16.5986 29.5743 13.7726 30.1279 9.96857L30.6165 6.62835C30.8179 5.20125 30.3909 3.75683 29.4458 2.66862Z" fill="#283593"/>
</g>
<defs>
<clipPath id="clip0_2_2332">
<rect width="43" height="43" fill="white"/>
</clipPath>
</defs>
</svg>
