<svg width="26" height="26" viewBox="0 0 26 26" fill="none" xmlns="http://www.w3.org/2000/svg">
<g clip-path="url(#clip0_2_94)">
<path d="M12.9999 -0.000171206C5.82037 -0.000171206 0 5.82014 0 12.9998C0 20.1797 5.82037 25.9998 12.9999 25.9998C20.1802 25.9998 26 20.1799 26 12.9998C26 5.82053 20.1802 0.000413809 12.9997 0.000413809L12.9999 -0.000366211V-0.000171206ZM18.9617 18.7497C18.7288 19.1316 18.229 19.2529 17.847 19.0183C14.7949 17.1538 10.9524 16.7316 6.42722 17.7656C5.9912 17.8648 5.55654 17.5916 5.45709 17.1554C5.35725 16.7192 5.62947 16.2845 6.06666 16.1852C11.0187 15.0538 15.2664 15.5409 18.6931 17.6351C19.0751 17.8695 19.1962 18.3677 18.9617 18.7497ZM20.5529 15.21C20.2594 15.6868 19.6354 15.8373 19.1588 15.5441C15.6644 13.3961 10.338 12.774 6.20472 14.0289C5.66866 14.1907 5.10258 13.8887 4.93995 13.3536C4.77849 12.8175 5.08074 12.2526 5.61582 12.0895C10.337 10.657 16.2063 11.3509 20.2192 13.8169C20.6958 14.1104 20.8463 14.7344 20.5531 15.2104V15.2102L20.5529 15.21ZM20.6896 11.524C16.4996 9.03538 9.587 8.80664 5.58676 10.0207C4.94443 10.2155 4.26505 9.85304 4.07044 9.21049C3.87583 8.56776 4.23814 7.88895 4.88086 7.69375C9.47293 6.29966 17.1066 6.56896 21.9305 9.4328C22.5095 9.77581 22.699 10.5219 22.3558 11.0989C22.0142 11.6767 21.266 11.8672 20.6901 11.524H20.6896Z" fill="#1ED760"/>
</g>
<defs>
<clipPath id="clip0_2_94">
<rect width="26" height="26" fill="white"/>
</clipPath>
</defs>
</svg>
