<svg width="26" height="27" viewBox="0 0 26 27" fill="none" xmlns="http://www.w3.org/2000/svg">
<g clip-path="url(#clip0_2_138)">
<path d="M12.9999 10.8266C16.9225 13.92 23.5684 21.519 21.5584 23.671C19.2567 25.7558 16.2741 26.9999 12.9999 26.9999C9.72567 26.9999 6.71052 25.7558 4.4414 23.671C2.39896 21.519 9.07726 13.92 12.9675 10.8602C12.9675 10.8266 12.9999 10.8266 12.9999 10.8266ZM19.7754 1.98341C17.7978 0.739246 15.6257 -0.000488281 12.9999 -0.000488281C10.3739 -0.000488281 8.20199 0.739246 6.22436 1.98341C6.19195 1.98341 6.19195 2.01702 6.19195 2.05064C6.19195 2.08425 6.22436 2.08425 6.25677 2.08425C8.78537 1.5126 12.6108 3.76541 12.9675 4.00092H13.0323C13.3888 3.76562 17.2144 1.5128 19.743 2.08425C19.7754 2.08425 19.8078 2.08425 19.8078 2.05064C19.8078 2.01702 19.8078 1.98341 19.7754 1.98341ZM3.89023 3.86626C3.85782 3.86626 3.85782 3.89987 3.82541 3.89987C1.45886 6.35438 0 9.75052 0 13.4826C0 16.5424 1.00511 19.4005 2.65844 21.6533C2.65844 21.6869 2.69085 21.6869 2.72326 21.6869C2.75567 21.6869 2.75567 21.6533 2.72326 21.6197C1.71814 18.4254 6.80795 10.7256 9.43397 7.4975L9.46638 7.46388C9.46638 7.43027 9.46638 7.43027 9.43397 7.43027C5.44651 3.32822 4.1173 3.76521 3.89042 3.86606L3.89023 3.86626ZM16.566 7.39686L16.5336 7.43047C16.5336 7.43047 16.5336 7.46409 16.566 7.46409C19.1921 10.6919 24.2493 18.392 23.2767 21.5863V21.6535C23.3092 21.6535 23.3416 21.6535 23.3416 21.6199C24.9949 19.3671 26 16.509 26 13.4492C26 9.7169 24.5411 6.32097 22.1422 3.86646C22.1098 3.83285 22.1098 3.83285 22.0774 3.83285C21.8829 3.76562 20.5537 3.32842 16.5662 7.39706L16.566 7.39686Z" fill="#107B10"/>
</g>
<defs>
<clipPath id="clip0_2_138">
<rect width="26" height="27" fill="white"/>
</clipPath>
</defs>
</svg>
