<svg width="24" height="24" viewBox="0 0 24 24" fill="none" xmlns="http://www.w3.org/2000/svg">
<path d="M4.98215 24C4.06989 24 3.5634 23.7922 3.29288 23.64C2.91865 23.4292 2.22732 22.8935 1.60661 21.3055C0.613188 18.7633 0.0270524 15.6575 0 12.0073V11.9941C0.0270524 8.34248 0.613188 5.2382 1.60661 2.69447C2.22732 1.10648 2.91865 0.569338 3.29288 0.360044C3.5634 0.20783 4.06989 0 4.98215 0C5.32933 0 5.73661 0.0307355 6.21153 0.105379C8.97088 0.540066 12.0278 1.59824 15.2861 3.40139L15.2996 3.40724C18.5324 5.2543 21.0017 7.30187 22.7676 9.4109C23.8692 10.7281 24 11.5785 24 12C24 12.4215 23.8692 13.2719 22.7676 14.5891C21.0017 16.6981 18.5324 18.7457 15.2996 20.5928L15.2861 20.6001C12.0278 22.4032 8.97088 23.4614 6.21153 23.8961C5.73661 23.9707 5.33083 24 4.98215 24Z" fill="#FF6900"/>
</svg>
