<svg width="48" height="48" viewBox="0 0 48 48" fill="none" xmlns="http://www.w3.org/2000/svg">
<path d="M22.2295 22.5657H25.7732V30.6282H22.2295V22.5657Z" fill="#FF7129"/>
<path d="M19.998 34.0783C19.998 31.8658 21.7887 30.0564 24.0012 30.0564C26.2137 30.0564 28.0043 31.8658 28.0043 34.0783H19.998Z" fill="#FFA017"/>
<path d="M18.376 34.0781H29.626C30.6572 34.0781 31.501 34.9219 31.501 35.9531V39.2344H16.501V35.9531C16.501 34.9219 17.3447 34.0781 18.376 34.0781Z" fill="#B24E1D"/>
<path d="M15.3291 39.2344H32.6729C34.0979 39.2344 35.251 40.3875 35.251 41.8125C35.251 43.2375 34.0979 44.3906 32.6729 44.3906H15.3291C13.9041 44.3906 12.751 43.2375 12.751 41.8125C12.751 40.3875 13.9041 39.2344 15.3291 39.2344Z" fill="#FFA017"/>
<path d="M27.7987 33.2718C27.5643 33.2718 27.3581 33.0937 27.3299 32.85C27.3018 32.5875 27.4893 32.3625 27.7518 32.3343C27.8081 32.325 31.2862 31.9312 34.6049 29.2875C39.0018 25.7812 41.1487 19.8843 40.7924 12.2531C40.7831 11.9906 40.9799 11.775 41.2424 11.7656C41.4956 11.7468 41.7206 11.9531 41.7299 12.2156C41.9268 16.65 41.3362 20.5125 39.9581 23.7C38.8424 26.2687 37.2299 28.4062 35.1487 30.0562C31.6049 32.8593 27.9956 33.2625 27.8456 33.2718C27.8362 33.2718 27.8174 33.2718 27.7987 33.2718Z" fill="#FFA017"/>
<path d="M44.8799 17.6905C43.2299 19.0593 40.8955 18.9562 40.8955 18.9562C40.8955 18.9562 41.233 16.6405 42.883 15.2718C44.533 13.903 46.8674 14.0062 46.8674 14.0062C46.8674 14.0062 46.5299 16.3218 44.8799 17.6905Z" fill="#FFA017"/>
<path d="M39.9484 14.8782C41.1765 16.6313 40.8859 18.9563 40.8859 18.9563C40.8859 18.9563 38.6077 18.4313 37.3796 16.6782C36.1515 14.9251 36.4421 12.6001 36.4421 12.6001C36.4421 12.6001 38.7202 13.1251 39.9484 14.8782Z" fill="#FFA017"/>
<path d="M38.7019 19.9501C39.7801 21.8063 39.2926 24.0938 39.2926 24.0938C39.2926 24.0938 37.0613 23.372 35.9926 21.5251C34.9144 19.6688 35.4019 17.3813 35.4019 17.3813C35.4019 17.3813 37.6332 18.0938 38.7019 19.9501Z" fill="#FFA017"/>
<path d="M36.6391 24.7126C37.0703 26.8126 35.8797 28.8282 35.8797 28.8282C35.8797 28.8282 33.9953 27.4407 33.5735 25.3407C33.1516 23.2407 34.3328 21.2251 34.3328 21.2251C34.3328 21.2251 36.2078 22.6126 36.6391 24.7126Z" fill="#FFA017"/>
<path d="M33.3483 28.4906C32.9076 30.5906 31.0139 31.9688 31.0139 31.9688C31.0139 31.9688 29.8326 29.9438 30.2733 27.8531C30.7139 25.7625 32.6076 24.375 32.6076 24.375C32.6076 24.375 33.7889 26.3906 33.3483 28.4906Z" fill="#FFA017"/>
<path d="M43.3707 23.1938C41.6082 24.4032 39.2832 24.0938 39.2832 24.0938C39.2832 24.0938 39.827 21.8157 41.5988 20.6063C43.3707 19.397 45.6863 19.7063 45.6863 19.7063C45.6863 19.7063 45.1426 21.9845 43.3707 23.1938Z" fill="#FFA017"/>
<path d="M40.0709 28.8657C38.074 29.6438 35.8896 28.8188 35.8896 28.8188C35.8896 28.8188 36.9396 26.7282 38.9365 25.9501C40.9334 25.1719 43.1178 25.9969 43.1178 25.9969C43.1178 25.9969 42.0678 28.0876 40.0709 28.8657Z" fill="#FFA017"/>
<path d="M34.849 33.6189C32.7022 33.5626 31.0146 31.9501 31.0146 31.9501C31.0146 31.9501 32.7959 30.4314 34.9334 30.4876C37.0709 30.5439 38.7678 32.1564 38.7678 32.1564C38.7678 32.1564 36.9865 33.6751 34.849 33.6189Z" fill="#FFA017"/>
<path d="M42.8734 11.1C42.8734 13.2469 41.3078 14.9813 41.3078 14.9813C41.3078 14.9813 39.7422 13.2469 39.7422 11.1C39.7422 8.95313 41.2984 7.21875 41.2984 7.21875C41.2984 7.21875 42.8734 8.95313 42.8734 11.1Z" fill="#FFA017"/>
<path d="M20.2043 33.2718C20.4387 33.2718 20.6449 33.0937 20.673 32.85C20.7012 32.5875 20.5137 32.3625 20.2512 32.3343C20.1949 32.325 16.7168 31.9312 13.398 29.2875C9.00115 25.7812 6.85428 19.8843 7.21053 12.2531C7.2199 11.9906 7.02303 11.775 6.76053 11.7656C6.5074 11.7468 6.2824 11.9531 6.27303 12.2156C6.06678 16.65 6.66678 20.5125 8.0449 23.7C9.16053 26.2687 10.773 28.4062 12.8543 30.0562C16.398 32.8593 20.0074 33.2625 20.1574 33.2718H20.2043Z" fill="#FFA017"/>
<path d="M3.12324 17.6905C4.77324 19.0593 7.11699 18.9562 7.11699 18.9562C7.11699 18.9562 6.77949 16.6405 5.12949 15.2718C3.47949 13.903 1.13574 14.0062 1.13574 14.0062C1.13574 14.0062 1.47324 16.3218 3.12324 17.6905Z" fill="#FFA017"/>
<path d="M8.05441 14.8782C6.82628 16.6313 7.11691 18.9563 7.11691 18.9563C7.11691 18.9563 9.39503 18.4313 10.6232 16.6782C11.8513 14.9251 11.5607 12.6001 11.5607 12.6001C11.5607 12.6001 9.28253 13.1251 8.05441 14.8782Z" fill="#FFA017"/>
<path d="M9.30174 19.9501C8.23299 21.8063 8.71111 24.0938 8.71111 24.0938C8.71111 24.0938 10.9424 23.372 12.0111 21.5251C13.0799 19.6782 12.6017 17.3813 12.6017 17.3813C12.6017 17.3813 10.3705 18.0938 9.30174 19.9501Z" fill="#FFA017"/>
<path d="M11.3636 24.7126C10.9324 26.8126 12.123 28.8282 12.123 28.8282C12.123 28.8282 14.0074 27.4407 14.4386 25.3407C14.8699 23.2407 13.6793 21.2251 13.6793 21.2251C13.6793 21.2251 11.7949 22.6126 11.3636 24.7126Z" fill="#FFA017"/>
<path d="M14.6541 28.4906C15.0947 30.5906 16.9885 31.9688 16.9885 31.9688C16.9885 31.9688 18.1697 29.9438 17.7291 27.8531C17.2885 25.7625 15.3947 24.375 15.3947 24.375C15.3947 24.375 14.2135 26.3906 14.6541 28.4906Z" fill="#FFA017"/>
<path d="M4.63301 23.1938C6.39551 24.4032 8.72051 24.0938 8.72051 24.0938C8.72051 24.0938 8.17676 21.8157 6.40488 20.6063C4.63301 19.397 2.31738 19.7063 2.31738 19.7063C2.31738 19.7063 2.86113 21.9845 4.63301 23.1938Z" fill="#FFA017"/>
<path d="M7.93301 28.8657C9.92988 29.6438 12.1143 28.8188 12.1143 28.8188C12.1143 28.8188 11.0643 26.7282 9.07676 25.9501C7.07988 25.1719 4.89551 25.9969 4.89551 25.9969C4.89551 25.9969 5.93613 28.0876 7.93301 28.8657Z" fill="#FFA017"/>
<path d="M13.1541 33.6189C15.301 33.5626 16.9885 31.9501 16.9885 31.9501C16.9885 31.9501 15.2072 30.4314 13.0697 30.4876C10.9322 30.5439 9.23535 32.1564 9.23535 32.1564C9.23535 32.1564 11.0166 33.6751 13.1541 33.6189Z" fill="#FFA017"/>
<path d="M5.12988 11.1C5.12988 13.2469 6.69551 14.9813 6.69551 14.9813C6.69551 14.9813 8.26113 13.2469 8.26113 11.1C8.26113 8.95313 6.69551 7.21875 6.69551 7.21875C6.69551 7.21875 5.12988 8.95313 5.12988 11.1Z" fill="#FFA017"/>
<path d="M26.3267 5.01568L28.4642 9.0938L33.0111 9.86255C35.1017 10.2188 35.9361 12.7782 34.4549 14.2875L31.2299 17.5876L31.8955 22.1438C32.2049 24.2438 30.0299 25.8188 28.1267 24.8813L24.0017 22.8469L19.8767 24.8907C17.9736 25.8282 15.7986 24.2532 16.108 22.1532L16.7736 17.5969L13.5486 14.2969C12.0674 12.7782 12.9017 10.2282 14.9924 9.87193L19.5392 9.10318L21.6767 5.02505C22.6611 3.14068 25.3424 3.14068 26.3267 5.01568Z" fill="#FFA017"/>
<path d="M24.001 21.1125C27.237 21.1125 29.8604 18.4892 29.8604 15.2532C29.8604 12.0171 27.237 9.3938 24.001 9.3938C20.7649 9.3938 18.1416 12.0171 18.1416 15.2532C18.1416 18.4892 20.7649 21.1125 24.001 21.1125Z" fill="#FFF0C5"/>
<path d="M22.216 14.432V13.16H24.432V19H23.008V14.432H22.216Z" fill="#0D0B1F"/>
</svg>
