<svg width="40" height="35" viewBox="0 0 40 35" fill="none" xmlns="http://www.w3.org/2000/svg">
<path d="M18.1035 16.2686H21.145V23.1883H18.1035V16.2686Z" fill="#9A97AE"/>
<path d="M16.1855 26.1493C16.1855 24.2504 17.7224 22.6975 19.6213 22.6975C21.5202 22.6975 23.057 24.2504 23.057 26.1493H16.1855Z" fill="#A7A3BB"/>
<path d="M14.7958 26.1492H24.4512C25.3363 26.1492 26.0605 26.8733 26.0605 27.7584V30.5746H13.1865V27.7584C13.1865 26.8733 13.9107 26.1492 14.7958 26.1492Z" fill="#908E9B"/>
<path d="M12.1805 30.5747H27.066C28.289 30.5747 29.2787 31.5644 29.2787 32.7874C29.2787 34.0104 28.289 35.0001 27.066 35.0001H12.1805C10.9575 35.0001 9.96777 34.0104 9.96777 32.7874C9.96777 31.5644 10.9575 30.5747 12.1805 30.5747Z" fill="#56555F"/>
<path d="M22.8842 25.4571C22.683 25.4571 22.506 25.3042 22.4819 25.095C22.4577 24.8697 22.6187 24.6766 22.844 24.6524C22.8922 24.6444 25.8774 24.3065 28.7257 22.0374C32.4994 19.0281 34.342 13.9671 34.0362 7.41747C34.0282 7.19217 34.1972 7.00711 34.4225 6.99906C34.6397 6.98297 34.8328 7.15999 34.8409 7.38528C35.0098 11.1911 34.5029 14.5062 33.3201 17.2419C32.3626 19.4465 30.9787 21.2811 29.1924 22.6972C26.151 25.103 23.0532 25.449 22.9244 25.4571C22.9164 25.4571 22.9003 25.4571 22.8842 25.4571Z" fill="#A7A3BB"/>
<path d="M37.5437 12.0843C36.1275 13.2591 34.124 13.1706 34.124 13.1706C34.124 13.1706 34.4137 11.1832 35.8298 10.0084C37.246 8.83366 39.2495 8.92217 39.2495 8.92217C39.2495 8.92217 38.9598 10.9096 37.5437 12.0843Z" fill="#A7A3BB"/>
<path d="M33.3104 9.67032C34.3645 11.175 34.115 13.1704 34.115 13.1704C34.115 13.1704 32.1598 12.7198 31.1058 11.2152C30.0517 9.71055 30.3011 7.71509 30.3011 7.71509C30.3011 7.71509 32.2564 8.16568 33.3104 9.67032Z" fill="#A7A3BB"/>
<path d="M32.2411 14.0233C33.1664 15.6164 32.748 17.5797 32.748 17.5797C32.748 17.5797 30.833 16.9601 29.9157 15.375C28.9904 13.7819 29.4088 11.8186 29.4088 11.8186C29.4088 11.8186 31.3238 12.4301 32.2411 14.0233Z" fill="#A7A3BB"/>
<path d="M30.4719 18.1109C30.8421 19.9132 29.8202 21.6432 29.8202 21.6432C29.8202 21.6432 28.2029 20.4523 27.8408 18.65C27.4788 16.8476 28.4926 15.1177 28.4926 15.1177C28.4926 15.1177 30.1018 16.3085 30.4719 18.1109Z" fill="#A7A3BB"/>
<path d="M27.6485 21.3536C27.2703 23.1559 25.645 24.3387 25.645 24.3387C25.645 24.3387 24.6311 22.6007 25.0093 20.8064C25.3875 19.0121 27.0128 17.8213 27.0128 17.8213C27.0128 17.8213 28.0266 19.5512 27.6485 21.3536Z" fill="#A7A3BB"/>
<path d="M36.2513 16.8075C34.7386 17.8455 32.7432 17.58 32.7432 17.58C32.7432 17.58 33.2098 15.6248 34.7306 14.5868C36.2513 13.5488 38.2387 13.8144 38.2387 13.8144C38.2387 13.8144 37.772 15.7696 36.2513 16.8075Z" fill="#A7A3BB"/>
<path d="M33.4167 21.6753C31.7029 22.3432 29.8281 21.6351 29.8281 21.6351C29.8281 21.6351 30.7293 19.8408 32.4431 19.173C34.157 18.5051 36.0318 19.2132 36.0318 19.2132C36.0318 19.2132 35.1306 21.0075 33.4167 21.6753Z" fill="#A7A3BB"/>
<path d="M28.9354 25.7549C27.0929 25.7066 25.6445 24.3227 25.6445 24.3227C25.6445 24.3227 27.1733 23.0192 29.0078 23.0675C30.8424 23.1157 32.2987 24.4997 32.2987 24.4997C32.2987 24.4997 30.77 25.8032 28.9354 25.7549Z" fill="#A7A3BB"/>
<path d="M35.8242 6.42781C35.8242 8.27039 34.4804 9.75894 34.4804 9.75894C34.4804 9.75894 33.1367 8.27039 33.1367 6.42781C33.1367 4.58523 34.4724 3.09668 34.4724 3.09668C34.4724 3.09668 35.8242 4.58523 35.8242 6.42781Z" fill="#A7A3BB"/>
<path d="M16.3667 25.4571C16.5678 25.4571 16.7448 25.3042 16.769 25.095C16.7931 24.8697 16.6322 24.6766 16.4069 24.6524C16.3586 24.6444 13.3735 24.3065 10.5251 22.0374C6.75144 19.0281 4.90885 13.9671 5.21461 7.41747C5.22266 7.19217 5.05369 7.00711 4.82839 6.99906C4.61114 6.98297 4.41804 7.15999 4.40999 7.38528C4.23297 11.1911 4.74793 14.5062 5.93072 17.2419C6.88822 19.4465 8.27217 21.2811 10.0584 22.6972C13.0999 25.103 16.1977 25.449 16.3264 25.4571H16.3667Z" fill="#9A97AE"/>
<path d="M1.7058 12.0843C3.12193 13.2591 5.13348 13.1706 5.13348 13.1706C5.13348 13.1706 4.84382 11.1832 3.42768 10.0084C2.01155 8.83366 0 8.92217 0 8.92217C0 8.92217 0.289663 10.9096 1.7058 12.0843Z" fill="#9A97AE"/>
<path d="M5.93974 9.67032C4.88568 11.175 5.13512 13.1704 5.13512 13.1704C5.13512 13.1704 7.09034 12.7198 8.1444 11.2152C9.19845 9.71055 8.94902 7.71509 8.94902 7.71509C8.94902 7.71509 6.99379 8.16568 5.93974 9.67032Z" fill="#9A97AE"/>
<path d="M7.00857 14.0233C6.09131 15.6164 6.50166 17.5797 6.50166 17.5797C6.50166 17.5797 8.41666 16.9601 9.33393 15.375C10.2512 13.7899 9.84084 11.8186 9.84084 11.8186C9.84084 11.8186 7.92584 12.4301 7.00857 14.0233Z" fill="#9A97AE"/>
<path d="M8.78 18.1109C8.40987 19.9132 9.43174 21.6432 9.43174 21.6432C9.43174 21.6432 11.049 20.4523 11.4192 18.65C11.7893 16.8476 10.7674 15.1177 10.7674 15.1177C10.7674 15.1177 9.15012 16.3085 8.78 18.1109Z" fill="#9A97AE"/>
<path d="M11.604 21.3536C11.9822 23.1559 13.6075 24.3387 13.6075 24.3387C13.6075 24.3387 14.6214 22.6007 14.2432 20.8064C13.865 19.0121 12.2397 17.8213 12.2397 17.8213C12.2397 17.8213 11.2259 19.5512 11.604 21.3536Z" fill="#9A97AE"/>
<path d="M3.00206 16.8075C4.51475 17.8455 6.51021 17.58 6.51021 17.58C6.51021 17.58 6.04353 15.6248 4.52279 14.5868C3.00206 13.5488 1.01465 13.8144 1.01465 13.8144C1.01465 13.8144 1.48133 15.7696 3.00206 16.8075Z" fill="#9A97AE"/>
<path d="M5.83451 21.6753C7.54835 22.3432 9.42312 21.6351 9.42312 21.6351C9.42312 21.6351 8.52194 19.8408 6.81615 19.173C5.10231 18.5051 3.22754 19.2132 3.22754 19.2132C3.22754 19.2132 4.12067 21.0075 5.83451 21.6753Z" fill="#9A97AE"/>
<path d="M10.3145 25.7549C12.1571 25.7066 13.6054 24.3227 13.6054 24.3227C13.6054 24.3227 12.0766 23.0192 10.2421 23.0675C8.40754 23.1157 6.95117 24.4997 6.95117 24.4997C6.95117 24.4997 8.47995 25.8032 10.3145 25.7549Z" fill="#9A97AE"/>
<path d="M3.42871 6.42781C3.42871 8.27039 4.77243 9.75894 4.77243 9.75894C4.77243 9.75894 6.11614 8.27039 6.11614 6.42781C6.11614 4.58523 4.77243 3.09668 4.77243 3.09668C4.77243 3.09668 3.42871 4.58523 3.42871 6.42781Z" fill="#9A97AE"/>
<path d="M21.6193 1.20593L23.4538 4.70603L27.3562 5.36582C29.1505 5.67157 29.8666 7.86819 28.5953 9.16363L25.8274 11.9959L26.3987 15.9063C26.6643 17.7087 24.7975 19.0605 23.1642 18.2558L19.6238 16.5098L16.0835 18.2639C14.4501 19.0685 12.5834 17.7167 12.8489 15.9144L13.4202 12.0039L10.6523 9.17167C9.381 7.86819 10.0971 5.67962 11.8914 5.37386L15.7938 4.71407L17.6284 1.21397C18.4732 -0.403314 20.7744 -0.403314 21.6193 1.20593Z" fill="#9A97AE"/>
<path d="M19.9068 15.0211C22.6842 15.0211 24.9357 12.7696 24.9357 9.99226C24.9357 7.21489 22.6842 4.96338 19.9068 4.96338C17.1294 4.96338 14.8779 7.21489 14.8779 9.99226C14.8779 12.7696 17.1294 15.0211 19.9068 15.0211Z" fill="#FFF0C5"/>
<path d="M18.234 11.178C18.37 11.07 18.432 11.02 18.42 11.028C18.812 10.704 19.12 10.438 19.344 10.23C19.572 10.022 19.764 9.804 19.92 9.576C20.076 9.348 20.154 9.126 20.154 8.91C20.154 8.746 20.116 8.618 20.04 8.526C19.964 8.434 19.85 8.388 19.698 8.388C19.546 8.388 19.426 8.446 19.338 8.562C19.254 8.674 19.212 8.834 19.212 9.042H18.222C18.23 8.702 18.302 8.418 18.438 8.19C18.578 7.962 18.76 7.794 18.984 7.686C19.212 7.578 19.464 7.524 19.74 7.524C20.216 7.524 20.574 7.646 20.814 7.89C21.058 8.134 21.18 8.452 21.18 8.844C21.18 9.272 21.034 9.67 20.742 10.038C20.45 10.402 20.078 10.758 19.626 11.106H21.246V11.94H18.234V11.178Z" fill="#1C1A2E"/>
</svg>
