<svg width="39" height="35" viewBox="0 0 39 35" fill="none" xmlns="http://www.w3.org/2000/svg">
<path d="M17.9873 16.165H21.0094V23.0408H17.9873V16.165Z" fill="#C36438"/>
<path d="M16.082 25.9829C16.082 24.096 17.6091 22.553 19.4959 22.553C21.3828 22.553 22.9098 24.096 22.9098 25.9829H16.082Z" fill="#C36438"/>
<path d="M14.7006 25.9829H24.2947C25.1741 25.9829 25.8937 26.7025 25.8937 27.5819V30.3802H13.1016V27.5819C13.1016 26.7025 13.8211 25.9829 14.7006 25.9829Z" fill="#A14F2A"/>
<path d="M12.102 30.3801H26.8929C28.1081 30.3801 29.0915 31.3635 29.0915 32.5788C29.0915 33.794 28.1081 34.7774 26.8929 34.7774H12.102C10.8867 34.7774 9.90332 33.794 9.90332 32.5788C9.90332 31.3635 10.8867 30.3801 12.102 30.3801Z" fill="#73391E"/>
<path d="M22.741 25.2953C22.5411 25.2953 22.3652 25.1434 22.3412 24.9356C22.3173 24.7117 22.4772 24.5198 22.701 24.4958C22.749 24.4878 25.7152 24.152 28.5454 21.8974C32.2951 18.9073 34.126 13.8784 33.8222 7.37037C33.8142 7.14651 33.9821 6.96262 34.2059 6.95462C34.4218 6.93863 34.6137 7.11453 34.6217 7.33839C34.7896 11.1201 34.2859 14.414 33.1106 17.1324C32.1592 19.323 30.7841 21.1459 29.0091 22.553C25.987 24.9436 22.9089 25.2873 22.781 25.2953C22.773 25.2953 22.757 25.2953 22.741 25.2953Z" fill="#C36438"/>
<path d="M37.3071 12.0078C35.9 13.1751 33.9092 13.0872 33.9092 13.0872C33.9092 13.0872 34.197 11.1124 35.6041 9.9451C37.0113 8.77782 39.002 8.86577 39.002 8.86577C39.002 8.86577 38.7142 10.8406 37.3071 12.0078Z" fill="#C36438"/>
<path d="M33.1007 9.60906C34.1481 11.1041 33.9002 13.0869 33.9002 13.0869C33.9002 13.0869 31.9574 12.6392 30.91 11.1441C29.8627 9.64904 30.1105 7.66626 30.1105 7.66626C30.1105 7.66626 32.0533 8.11398 33.1007 9.60906Z" fill="#C36438"/>
<path d="M32.0379 13.9343C32.9573 15.5173 32.5416 17.4681 32.5416 17.4681C32.5416 17.4681 30.6388 16.8525 29.7273 15.2775C28.8079 13.6945 29.2236 11.7437 29.2236 11.7437C29.2236 11.7437 31.1265 12.3513 32.0379 13.9343Z" fill="#C36438"/>
<path d="M30.2809 17.9959C30.6487 19.7868 29.6333 21.5057 29.6333 21.5057C29.6333 21.5057 28.0263 20.3225 27.6665 18.5316C27.3067 16.7407 28.3141 15.0217 28.3141 15.0217C28.3141 15.0217 29.9131 16.205 30.2809 17.9959Z" fill="#C36438"/>
<path d="M27.4749 21.2181C27.0991 23.009 25.4841 24.1843 25.4841 24.1843C25.4841 24.1843 24.4767 22.4573 24.8525 20.6744C25.2283 18.8915 26.8433 17.7083 26.8433 17.7083C26.8433 17.7083 27.8507 19.4272 27.4749 21.2181Z" fill="#C36438"/>
<path d="M36.023 16.7009C34.5199 17.7323 32.5371 17.4685 32.5371 17.4685C32.5371 17.4685 33.0008 15.5257 34.5119 14.4943C36.023 13.4629 37.9977 13.7268 37.9977 13.7268C37.9977 13.7268 37.534 15.6696 36.023 16.7009Z" fill="#C36438"/>
<path d="M33.2064 21.5377C31.5035 22.2013 29.6406 21.4978 29.6406 21.4978C29.6406 21.4978 30.5361 19.7149 32.239 19.0513C33.942 18.3877 35.8048 19.0912 35.8048 19.0912C35.8048 19.0912 34.9094 20.8741 33.2064 21.5377Z" fill="#C36438"/>
<path d="M28.7534 25.5913C26.9225 25.5434 25.4834 24.1682 25.4834 24.1682C25.4834 24.1682 27.0025 22.873 28.8253 22.921C30.6482 22.9689 32.0953 24.3441 32.0953 24.3441C32.0953 24.3441 30.5763 25.6393 28.7534 25.5913Z" fill="#C36438"/>
<path d="M35.5981 6.38711C35.5981 8.21799 34.2629 9.69707 34.2629 9.69707C34.2629 9.69707 32.9277 8.21799 32.9277 6.38711C32.9277 4.55624 34.2549 3.07715 34.2549 3.07715C34.2549 3.07715 35.5981 4.55624 35.5981 6.38711Z" fill="#C36438"/>
<path d="M16.2631 25.2953C16.463 25.2953 16.6389 25.1434 16.6629 24.9356C16.6869 24.7117 16.527 24.5198 16.3031 24.4958C16.2551 24.4878 13.2889 24.152 10.4587 21.8974C6.709 18.9073 4.87812 13.8784 5.18194 7.37037C5.18993 7.14651 5.02204 6.96262 4.79817 6.95462C4.58231 6.93863 4.39042 7.11453 4.38243 7.33839C4.20654 11.1201 4.71822 14.414 5.8935 17.1324C6.84491 19.323 8.22007 21.1459 9.99498 22.553C13.0171 24.9436 16.0952 25.2873 16.2231 25.2953H16.2631Z" fill="#C36438"/>
<path d="M1.69496 12.0076C3.10209 13.1749 5.10086 13.0869 5.10086 13.0869C5.10086 13.0869 4.81304 11.1121 3.4059 9.94486C1.99877 8.77758 0 8.86552 0 8.86552C0 8.86552 0.287823 10.8403 1.69496 12.0076Z" fill="#C36438"/>
<path d="M5.90223 9.60882C4.85488 11.1039 5.10273 13.0867 5.10273 13.0867C5.10273 13.0867 7.04553 12.639 8.09289 11.1439C9.14024 9.6488 8.89239 7.66602 8.89239 7.66602C8.89239 7.66602 6.94959 8.11374 5.90223 9.60882Z" fill="#C36438"/>
<path d="M6.96376 13.9343C6.05232 15.5173 6.46007 17.4681 6.46007 17.4681C6.46007 17.4681 8.3629 16.8525 9.27434 15.2775C10.1858 13.7024 9.77802 11.7437 9.77802 11.7437C9.77802 11.7437 7.8752 12.3513 6.96376 13.9343Z" fill="#C36438"/>
<path d="M8.72382 17.9957C8.35605 19.7866 9.37142 21.5055 9.37142 21.5055C9.37142 21.5055 10.9784 20.3222 11.3462 18.5313C11.714 16.7404 10.6986 15.0215 10.6986 15.0215C10.6986 15.0215 9.09159 16.2048 8.72382 17.9957Z" fill="#C36438"/>
<path d="M11.5302 21.2178C11.906 23.0087 13.521 24.184 13.521 24.184C13.521 24.184 14.5284 22.4571 14.1526 20.6742C13.7769 18.8913 12.1619 17.708 12.1619 17.708C12.1619 17.708 11.1545 19.4269 11.5302 21.2178Z" fill="#C36438"/>
<path d="M2.9826 16.7007C4.48567 17.732 6.46845 17.4682 6.46845 17.4682C6.46845 17.4682 6.00474 15.5254 4.49367 14.494C2.9826 13.4627 1.00781 13.7265 1.00781 13.7265C1.00781 13.7265 1.47153 15.6693 2.9826 16.7007Z" fill="#C36438"/>
<path d="M5.79744 21.5375C7.50039 22.2011 9.36324 21.4975 9.36324 21.4975C9.36324 21.4975 8.46779 19.7146 6.77284 19.051C5.06989 18.3874 3.20703 19.091 3.20703 19.091C3.20703 19.091 4.09449 20.8739 5.79744 21.5375Z" fill="#C36438"/>
<path d="M10.2492 25.5911C12.08 25.5431 13.5192 24.168 13.5192 24.168C13.5192 24.168 12.0001 22.8728 10.1772 22.9207C8.35434 22.9687 6.90723 24.3439 6.90723 24.3439C6.90723 24.3439 8.42629 25.6391 10.2492 25.5911Z" fill="#C36438"/>
<path d="M3.40723 6.38687C3.40723 8.21774 4.74241 9.69683 4.74241 9.69683C4.74241 9.69683 6.07758 8.21774 6.07758 6.38687C6.07758 4.55599 4.74241 3.0769 4.74241 3.0769C4.74241 3.0769 3.40723 4.55599 3.40723 6.38687Z" fill="#C36438"/>
<path d="M21.482 1.19826L23.3049 4.67612L27.1825 5.33172C28.9654 5.63553 29.677 7.81819 28.4138 9.1054L25.6635 11.9197L26.2311 15.8053C26.4949 17.5962 24.6401 18.9393 23.0171 18.1398L19.4992 16.4049L15.9814 18.1478C14.3584 18.9473 12.5036 17.6042 12.7674 15.8133L13.335 11.9277L10.5847 9.11339C9.32151 7.81819 10.0331 5.64353 11.816 5.33972L15.6936 4.68412L17.5165 1.20626C18.3559 -0.400752 20.6425 -0.400751 21.482 1.19826Z" fill="#C36438"/>
<path d="M19.7801 14.926C22.5399 14.926 24.7771 12.6888 24.7771 9.92905C24.7771 7.16933 22.5399 4.93213 19.7801 4.93213C17.0204 4.93213 14.7832 7.16933 14.7832 9.92905C14.7832 12.6888 17.0204 14.926 19.7801 14.926Z" fill="#FFF0C5"/>
<path d="M18.306 8.856C18.322 8.428 18.462 8.098 18.726 7.866C18.99 7.634 19.348 7.518 19.8 7.518C20.1 7.518 20.356 7.57 20.568 7.674C20.784 7.778 20.946 7.92 21.054 8.1C21.166 8.28 21.222 8.482 21.222 8.706C21.222 8.97 21.156 9.186 21.024 9.354C20.892 9.518 20.738 9.63 20.562 9.69V9.714C20.79 9.79 20.97 9.916 21.102 10.092C21.234 10.268 21.3 10.494 21.3 10.77C21.3 11.018 21.242 11.238 21.126 11.43C21.014 11.618 20.848 11.766 20.628 11.874C20.412 11.982 20.154 12.036 19.854 12.036C19.374 12.036 18.99 11.918 18.702 11.682C18.418 11.446 18.268 11.09 18.252 10.614H19.248C19.252 10.79 19.302 10.93 19.398 11.034C19.494 11.134 19.634 11.184 19.818 11.184C19.974 11.184 20.094 11.14 20.178 11.052C20.266 10.96 20.31 10.84 20.31 10.692C20.31 10.5 20.248 10.362 20.124 10.278C20.004 10.19 19.81 10.146 19.542 10.146H19.35V9.312H19.542C19.746 9.312 19.91 9.278 20.034 9.21C20.162 9.138 20.226 9.012 20.226 8.832C20.226 8.688 20.186 8.576 20.106 8.496C20.026 8.416 19.916 8.376 19.776 8.376C19.624 8.376 19.51 8.422 19.434 8.514C19.362 8.606 19.32 8.72 19.308 8.856H18.306Z" fill="#1C1A2E"/>
</svg>
