<svg width="16" height="18" viewBox="0 0 16 18" fill="none" xmlns="http://www.w3.org/2000/svg">
    <path d="M1.54877 5.90796H1.50331C0.920504 5.90796 0.445312 6.38546 0.445312 6.96774V11.5818C0.445312 12.1664 0.920504 12.6424 1.50331 12.6424H1.54955C2.13235 12.6424 2.60755 12.1649 2.60755 11.5818V6.9677C2.60677 6.38546 2.13084 5.90796 1.54877 5.90796Z" fill="white"/>
    <path d="M3.1138 13.3628C3.1138 13.8988 3.55108 14.3353 4.08614 14.3353H5.1252V16.8276C5.1252 17.4129 5.6019 17.8889 6.1832 17.8889H6.22866C6.81224 17.8889 7.28817 17.4121 7.28817 16.8276V14.3353H8.74027V16.8276C8.74027 17.4129 9.21848 17.8889 9.79978 17.8889H9.8445C10.428 17.8889 10.9032 17.4121 10.9032 16.8276V14.3353H11.943C12.4773 14.3353 12.9146 13.8988 12.9146 13.3628V6.07724H3.1138V13.3628Z" fill="white"/>
    <path d="M10.4553 1.65899L11.2806 0.382874C11.3337 0.302386 11.3102 0.192336 11.2291 0.139933C11.1488 0.0867914 11.0389 0.108822 10.9866 0.191562L10.131 1.51174C9.48905 1.24832 8.7721 1.10029 8.01495 1.10029C7.25707 1.10029 6.54163 1.24832 5.89822 1.51174L5.04411 0.191562C4.99183 0.108822 4.88115 0.0867914 4.80006 0.139933C4.71897 0.192301 4.69547 0.302386 4.74852 0.382874L5.5746 1.65899C4.08536 2.39006 3.08119 3.76792 3.08119 5.34845C3.08119 5.44562 3.08727 5.54128 3.0956 5.63616H12.9351C12.9434 5.54128 12.9487 5.44562 12.9487 5.34845C12.9487 3.76792 11.9438 2.39006 10.4553 1.65899ZM5.73376 3.94403C5.47229 3.94403 5.26008 3.73297 5.26008 3.47032C5.26008 3.20767 5.47229 2.99736 5.73376 2.99736C5.99674 2.99736 6.20744 3.20764 6.20744 3.47032C6.20744 3.73301 5.99523 3.94403 5.73376 3.94403ZM10.2954 3.94403C10.0339 3.94403 9.82173 3.73297 9.82173 3.47032C9.82173 3.20767 10.0339 2.99736 10.2954 2.99736C10.5576 2.99736 10.7683 3.20764 10.7683 3.47032C10.7683 3.73297 10.5576 3.94403 10.2954 3.94403Z" fill="white"/>
    <path d="M14.5251 5.90796H14.4811C13.8983 5.90796 13.4216 6.38546 13.4216 6.96774V11.5818C13.4216 12.1664 13.8991 12.6424 14.4811 12.6424H14.5259C15.1094 12.6424 15.5839 12.1649 15.5839 11.5818V6.9677C15.5839 6.38546 15.1079 5.90796 14.5251 5.90796Z" fill="white"/>
</svg>
