<svg width="20" height="20" viewBox="0 0 20 20" fill="none" xmlns="http://www.w3.org/2000/svg">
<g clip-path="url(#clip0_2_13643)">
<path d="M7.28673 11.0338C7.28673 10.7833 7.08351 10.5803 6.83277 10.5803H5.24863C4.99818 10.5803 4.79492 10.7833 4.79492 11.0338V12.6178C4.79492 12.8686 4.99818 13.0717 5.24863 13.0717H6.83277C7.08351 13.0717 7.28673 12.8686 7.28673 12.6178V11.0338Z" fill="#656588"/>
<path d="M11.2455 11.0338C11.2455 10.7833 11.0422 10.5803 10.792 10.5803H9.20762C8.95716 10.5803 8.75391 10.7833 8.75391 11.0338V12.6178C8.75391 12.8686 8.95716 13.0717 9.20762 13.0717H10.792C11.0422 13.0717 11.2455 12.8686 11.2455 12.6178V11.0338Z" fill="#656588"/>
<path d="M15.2047 11.0338C15.2047 10.7833 15.0014 10.5803 14.751 10.5803H13.1668C12.9161 10.5803 12.7129 10.7833 12.7129 11.0338V12.6178C12.7129 12.8686 12.9161 13.0717 13.1668 13.0717H14.751C15.0014 13.0717 15.2047 12.8686 15.2047 12.6178V11.0338Z" fill="#656588"/>
<path d="M7.28673 14.9933C7.28673 14.7424 7.08351 14.5396 6.83277 14.5396H5.24863C4.99818 14.5396 4.79492 14.7424 4.79492 14.9933V16.5769C4.79492 16.8276 4.99818 17.0307 5.24863 17.0307H6.83277C7.08351 17.0307 7.28673 16.8276 7.28673 16.5769V14.9933Z" fill="#656588"/>
<path d="M11.2455 14.9933C11.2455 14.7424 11.0422 14.5396 10.792 14.5396H9.20762C8.95716 14.5396 8.75391 14.7424 8.75391 14.9933V16.5769C8.75391 16.8276 8.95716 17.0307 9.20762 17.0307H10.792C11.0422 17.0307 11.2455 16.8276 11.2455 16.5769V14.9933Z" fill="#656588"/>
<path d="M15.2047 14.9933C15.2047 14.7424 15.0014 14.5396 14.7512 14.5396H13.1668C12.9161 14.5396 12.7129 14.7424 12.7129 14.9933V16.5769C12.7129 16.8276 12.9161 17.0307 13.1668 17.0307H14.7512C15.0014 17.0307 15.2047 16.8276 15.2047 16.5769V14.9933Z" fill="#656588"/>
<path d="M18.0376 2.22695V4.64628C18.0376 5.73979 17.1505 6.62099 16.0571 6.62099H14.8078C13.7144 6.62099 12.8155 5.73979 12.8155 4.64628V2.21826H7.18447V4.64628C7.18447 5.73979 6.28565 6.62099 5.19239 6.62099H3.94282C2.84951 6.62099 1.96245 5.73979 1.96245 4.64628V2.22695C1.00689 2.25575 0.22168 3.04645 0.22168 4.01832V18.1967C0.22168 19.1869 1.02422 20.0001 2.01436 20.0001H17.9856C18.9743 20.0001 19.7783 19.1852 19.7783 18.1967V4.01832C19.7783 3.04645 18.9931 2.25575 18.0376 2.22695ZM17.4573 17.3138C17.4573 17.7417 17.1104 18.0889 16.6823 18.0889H3.28355C2.85549 18.0889 2.50855 17.7417 2.50855 17.3138V9.99014C2.50855 9.56208 2.85545 9.21493 3.28355 9.21493H16.6823C17.1103 9.21493 17.4573 9.56208 17.4573 9.99014L17.4573 17.3138Z" fill="#656588"/>
<path d="M3.938 5.32396H5.17377C5.54885 5.32396 5.85298 5.02028 5.85298 4.64519V0.67901C5.85298 0.303881 5.54885 0 5.17377 0H3.938C3.56287 0 3.25879 0.303881 3.25879 0.67901V4.64519C3.25879 5.02028 3.56287 5.32396 3.938 5.32396Z" fill="#656588"/>
<path d="M14.7915 5.32396H16.0272C16.4021 5.32396 16.7062 5.02028 16.7062 4.64519V0.67901C16.7063 0.303881 16.4021 0 16.0272 0H14.7915C14.4164 0 14.1123 0.303881 14.1123 0.67901V4.64519C14.1123 5.02028 14.4164 5.32396 14.7915 5.32396Z" fill="#656588"/>
</g>
<defs>
<clipPath id="clip0_2_13643">
<rect width="20" height="20" fill="white"/>
</clipPath>
</defs>
</svg>
