<svg width="59" height="59" viewBox="0 0 59 59" fill="none" xmlns="http://www.w3.org/2000/svg">
<circle cx="29.5" cy="29.5" r="29.5" fill="#2568EF"/>
<path d="M37.0001 17.1667H23.0001C22.234 17.1667 21.4755 17.3176 20.7678 17.6108C20.06 17.9039 19.417 18.3336 18.8753 18.8753C17.7813 19.9693 17.1667 21.453 17.1667 23.0001V32.3334C17.1665 33.6782 17.6308 34.9817 18.4812 36.0235C19.3316 37.0652 20.5158 37.7811 21.8334 38.0501V40.5001C21.8325 40.9614 21.9683 41.4127 22.2237 41.7968C22.4791 42.181 22.8427 42.4808 23.2684 42.6584C23.554 42.7735 23.8589 42.8329 24.1667 42.8334C24.7846 42.8308 25.3762 42.5833 25.8117 42.1451L29.8017 38.1667H37.0001C37.7661 38.1667 38.5247 38.0159 39.2324 37.7227C39.9401 37.4296 40.5832 36.9999 41.1249 36.4582C41.6665 35.9165 42.0962 35.2735 42.3894 34.5657C42.6825 33.858 42.8334 33.0995 42.8334 32.3334V23.0001C42.8334 22.234 42.6825 21.4755 42.3894 20.7678C42.0962 20.06 41.6665 19.417 41.1249 18.8753C40.5832 18.3336 39.9401 17.9039 39.2324 17.6108C38.5247 17.3176 37.7661 17.1667 37.0001 17.1667ZM24.7501 29.4167C24.404 29.4167 24.0656 29.3141 23.7778 29.1218C23.49 28.9295 23.2657 28.6562 23.1333 28.3364C23.0008 28.0167 22.9662 27.6648 23.0337 27.3253C23.1012 26.9859 23.2679 26.6741 23.5126 26.4293C23.7574 26.1846 24.0692 26.0179 24.4087 25.9504C24.7481 25.8828 25.1 25.9175 25.4198 26.05C25.7395 26.1824 26.0129 26.4067 26.2052 26.6945C26.3974 26.9823 26.5001 27.3206 26.5001 27.6667C26.5001 28.1309 26.3157 28.576 25.9875 28.9042C25.6593 29.2324 25.2142 29.4167 24.7501 29.4167ZM30.0001 29.4167C29.654 29.4167 29.3156 29.3141 29.0278 29.1218C28.74 28.9295 28.5157 28.6562 28.3833 28.3364C28.2508 28.0167 28.2162 27.6648 28.2837 27.3253C28.3512 26.9859 28.5179 26.6741 28.7626 26.4293C29.0074 26.1846 29.3192 26.0179 29.6587 25.9504C29.9981 25.8828 30.35 25.9175 30.6698 26.05C30.9895 26.1824 31.2629 26.4067 31.4552 26.6945C31.6474 26.9823 31.7501 27.3206 31.7501 27.6667C31.7501 28.1309 31.5657 28.576 31.2375 28.9042C30.9093 29.2324 30.4642 29.4167 30.0001 29.4167ZM35.2501 29.4167C34.904 29.4167 34.5656 29.3141 34.2778 29.1218C33.99 28.9295 33.7657 28.6562 33.6333 28.3364C33.5008 28.0167 33.4662 27.6648 33.5337 27.3253C33.6012 26.9859 33.7679 26.6741 34.0126 26.4293C34.2574 26.1846 34.5692 26.0179 34.9087 25.9504C35.2481 25.8828 35.6 25.9175 35.9198 26.05C36.2395 26.1824 36.5129 26.4067 36.7052 26.6945C36.8974 26.9823 37.0001 27.3206 37.0001 27.6667C37.0001 28.1309 36.8157 28.576 36.4875 28.9042C36.1593 29.2324 35.7142 29.4167 35.2501 29.4167Z" fill="white"/>
</svg>
