<svg width="32" height="32" viewBox="0 0 32 32" fill="none" xmlns="http://www.w3.org/2000/svg">
<path d="M15.9993 31.5834C24.6058 31.5834 31.5827 24.6065 31.5827 16.0001C31.5827 7.39364 24.6058 0.416748 15.9993 0.416748C7.39291 0.416748 0.416016 7.39364 0.416016 16.0001C0.416016 24.6065 7.39291 31.5834 15.9993 31.5834Z" fill="#FFEB3B"/>
<path d="M15.9995 0.416748V31.5834C20.1325 31.5834 24.0962 29.9416 27.0186 27.0192C29.941 24.0967 31.5828 20.133 31.5828 16.0001C31.5828 11.8671 29.941 7.90344 27.0186 4.981C24.0962 2.05856 20.1325 0.416748 15.9995 0.416748Z" fill="#FBC02D"/>
<path d="M15.9995 28.75C23.0411 28.75 28.7495 23.0416 28.7495 16C28.7495 8.95837 23.0411 3.25 15.9995 3.25C8.95788 3.25 3.24951 8.95837 3.24951 16C3.24951 23.0416 8.95788 28.75 15.9995 28.75Z" fill="#FF9800"/>
<path d="M15.9995 3.25V28.75C19.381 28.75 22.624 27.4067 25.0151 25.0156C27.4062 22.6245 28.7495 19.3815 28.7495 16C28.7495 12.6185 27.4062 9.37548 25.0151 6.98439C22.624 4.5933 19.381 3.25 15.9995 3.25Z" fill="#F57C00"/>
<path d="M16.7075 15.3555V9.72567C17.3142 9.88175 17.852 10.2347 18.2365 10.7293C18.6211 11.2238 18.8307 11.832 18.8325 12.4584C18.8325 12.6463 18.9071 12.8264 19.04 12.9593C19.1728 13.0921 19.353 13.1667 19.5408 13.1667C19.7287 13.1667 19.9088 13.0921 20.0417 12.9593C20.1745 12.8264 20.2492 12.6463 20.2492 12.4584C20.2475 11.455 19.8911 10.4844 19.243 9.71836C18.5949 8.9523 17.6968 8.44004 16.7075 8.27216V7.50008C16.7075 7.31222 16.6329 7.13205 16.5 6.99921C16.3672 6.86638 16.187 6.79175 15.9992 6.79175C15.8113 6.79175 15.6311 6.86638 15.4983 6.99921C15.3654 7.13205 15.2908 7.31222 15.2908 7.50008V8.27216C14.3006 8.4382 13.4012 8.94989 12.7526 9.71634C12.104 10.4828 11.748 11.4543 11.748 12.4584C11.748 13.4625 12.104 14.434 12.7526 15.2005C13.4012 15.9669 14.3006 16.4786 15.2908 16.6447V22.2745C14.6841 22.1184 14.1463 21.7654 13.7618 21.2709C13.3772 20.7764 13.1676 20.1682 13.1658 19.5417C13.1658 19.3539 13.0912 19.1737 12.9584 19.0409C12.8255 18.908 12.6453 18.8334 12.4575 18.8334C12.2696 18.8334 12.0895 18.908 11.9566 19.0409C11.8238 19.1737 11.7492 19.3539 11.7492 19.5417C11.7508 20.5452 12.1072 21.5157 12.7553 22.2818C13.4034 23.0479 14.3015 23.5601 15.2908 23.728V24.5001C15.2908 24.6879 15.3654 24.8681 15.4983 25.0009C15.6311 25.1338 15.8113 25.2084 15.9992 25.2084C16.187 25.2084 16.3672 25.1338 16.5 25.0009C16.6329 24.8681 16.7075 24.6879 16.7075 24.5001V23.728C17.6977 23.562 18.5971 23.0503 19.2457 22.2838C19.8943 21.5174 20.2503 20.5458 20.2503 19.5417C20.2503 18.5377 19.8943 17.5661 19.2457 16.7997C18.5971 16.0332 17.6977 15.5215 16.7075 15.3555ZM13.1658 12.4584C13.1676 11.832 13.3772 11.2238 13.7618 10.7293C14.1463 10.2347 14.6841 9.88175 15.2908 9.72567V15.1912C14.6841 15.0351 14.1463 14.6821 13.7618 14.1876C13.3772 13.693 13.1676 13.0849 13.1658 12.4584ZM16.7075 22.2745V16.809C17.3151 16.9635 17.8539 17.316 18.2387 17.8109C18.6235 18.3058 18.8325 18.9148 18.8325 19.5417C18.8325 20.1687 18.6235 20.7777 18.2387 21.2726C17.8539 21.7675 17.3151 22.12 16.7075 22.2745Z" fill="#FFEB3B"/>
<path d="M16.7078 15.3555V9.72567C17.3146 9.88175 17.8523 10.2347 18.2369 10.7293C18.6214 11.2238 18.831 11.832 18.8328 12.4584C18.8328 12.6463 18.9075 12.8264 19.0403 12.9593C19.1731 13.0921 19.3533 13.1667 19.5412 13.1667C19.729 13.1667 19.9092 13.0921 20.042 12.9593C20.1749 12.8264 20.2495 12.6463 20.2495 12.4584C20.2478 11.455 19.8915 10.4844 19.2433 9.71836C18.5952 8.9523 17.6971 8.44004 16.7078 8.27216V7.50008C16.7078 7.31222 16.6332 7.13205 16.5004 6.99921C16.3675 6.86638 16.1874 6.79175 15.9995 6.79175V25.2084C16.1874 25.2084 16.3675 25.1338 16.5004 25.0009C16.6332 24.8681 16.7078 24.6879 16.7078 24.5001V23.728C17.6981 23.562 18.5974 23.0503 19.2461 22.2838C19.8947 21.5174 20.2506 20.5458 20.2506 19.5417C20.2506 18.5377 19.8947 17.5661 19.2461 16.7997C18.5974 16.0332 17.6981 15.5215 16.7078 15.3555ZM16.7078 22.2743V16.809C17.3154 16.9635 17.8542 17.316 18.2391 17.8109C18.6239 18.3058 18.8328 18.9148 18.8328 19.5417C18.8328 20.1687 18.6239 20.7777 18.2391 21.2726C17.8542 21.7675 17.3154 22.1198 16.7078 22.2743Z" fill="#FBC02D"/>
</svg>
