<svg width="62" height="44" viewBox="0 0 62 44" fill="none" xmlns="http://www.w3.org/2000/svg">
<path d="M49.4141 37.5613H11.8594C10.7677 37.5613 9.88281 38.4462 9.88281 39.5378V41.5144C9.88281 42.606 10.7677 43.491 11.8594 43.491H49.4141C50.5057 43.491 51.3906 42.606 51.3906 41.5144V39.5378C51.3906 38.4462 50.5057 37.5613 49.4141 37.5613Z" fill="#FADF7D"/>
<path d="M49.4141 41.5144H11.8594C11.3356 41.5128 10.8338 41.3041 10.4635 40.9338C10.0931 40.5634 9.88438 40.0616 9.88281 39.5378V41.5144C9.88438 42.0381 10.0931 42.54 10.4635 42.9103C10.8338 43.2807 11.3356 43.4894 11.8594 43.491H49.4141C49.9378 43.4894 50.4396 43.2807 50.81 42.9103C51.1803 42.54 51.3891 42.0381 51.3906 41.5144V39.5378C51.3891 40.0616 51.1803 40.5634 50.81 40.9338C50.4396 41.3041 49.9378 41.5128 49.4141 41.5144Z" fill="#FFBF40"/>
<path d="M6.11747 11.2235C5.38146 11.7051 4.50588 11.9274 3.6293 11.8554C2.75271 11.7833 1.92519 11.421 1.27769 10.8257C0.630198 10.2305 0.19971 9.43626 0.0543594 8.56881C-0.0909913 7.70137 0.0570972 6.81022 0.475189 6.0364C0.89328 5.26259 1.55749 4.6503 2.36271 4.29645C3.16793 3.94259 4.06816 3.86737 4.92094 4.0827C5.77371 4.29803 6.53032 4.79161 7.07103 5.48532C7.61173 6.17903 7.90564 7.03325 7.90626 7.91279C7.90671 8.56982 7.7434 9.2166 7.43107 9.79466C7.11875 10.3727 6.66727 10.8638 6.11747 11.2235Z" fill="#FFC608"/>
<path d="M32.6429 7.35934C32.0364 7.72158 31.3432 7.91284 30.6367 7.91284C29.9303 7.91284 29.237 7.72158 28.6305 7.35934C27.8832 6.9192 27.3014 6.24551 26.9747 5.44211C26.6481 4.6387 26.5947 3.75016 26.8228 2.91341C27.0509 2.07667 27.5478 1.33816 28.237 0.811685C28.9262 0.285212 29.7694 0 30.6367 0C31.504 0 32.3472 0.285212 33.0364 0.811685C33.7256 1.33816 34.2226 2.07667 34.4507 2.91341C34.6788 3.75016 34.6254 4.6387 34.2987 5.44211C33.972 6.24551 33.3902 6.9192 32.6429 7.35934Z" fill="#FFC608"/>
<path d="M57.3203 11.866C56.5385 11.866 55.7742 11.6341 55.1241 11.1997C54.474 10.7654 53.9673 10.148 53.6681 9.42564C53.3689 8.7033 53.2906 7.90846 53.4431 7.14163C53.5957 6.3748 53.9722 5.67042 54.525 5.11756C55.0779 4.56471 55.7823 4.18821 56.5491 4.03568C57.3159 3.88314 58.1108 3.96143 58.8331 4.26063C59.5555 4.55984 60.1728 5.06652 60.6072 5.71661C61.0416 6.36669 61.2734 7.13099 61.2734 7.91284C61.2734 8.96128 60.857 9.96677 60.1156 10.7081C59.3742 11.4495 58.3687 11.866 57.3203 11.866Z" fill="#FFC608"/>
<path d="M46.4492 12.6763C46.1336 12.796 45.7985 12.8563 45.4609 12.8542C45.0305 12.8552 44.6052 12.7607 44.2157 12.5775C43.5891 12.2902 43.0818 11.794 42.7808 11.1739C42.4798 10.5538 42.4036 9.84826 42.5655 9.17821C42.7274 8.50815 43.1172 7.91521 43.6681 7.50091C44.2191 7.08661 44.8969 6.87673 45.5856 6.9072C46.2742 6.93768 46.9309 7.20661 47.4431 7.66794C47.9553 8.12928 48.2911 8.75433 48.3932 9.43607C48.4953 10.1178 48.3571 10.8138 48.0025 11.4049C47.6479 11.996 47.0988 12.4455 46.4492 12.6763Z" fill="#FF9C00"/>
<path d="M17.059 12.5774C16.6695 12.7606 16.2442 12.8551 15.8137 12.8541C15.4762 12.8562 15.1411 12.7959 14.8255 12.6762C14.1801 12.4454 13.635 11.9976 13.2833 11.4094C12.9316 10.8211 12.7951 10.1289 12.8973 9.45122C12.9995 8.7735 13.3339 8.15232 13.8434 7.69389C14.3529 7.23546 15.0058 6.96825 15.6905 6.93795C16.3752 6.90765 17.0492 7.11615 17.5972 7.52779C18.1451 7.93943 18.5331 8.52865 18.6947 9.1947C18.8564 9.86075 18.7816 10.5623 18.4832 11.1793C18.1849 11.7963 17.6814 12.2905 17.059 12.5774Z" fill="#FF9C00"/>
<path d="M24.4501 24.4961C23.2543 26.4034 21.7224 27.6783 19.7656 27.6783C18.3425 27.6783 16.5932 26.2849 14.8242 24.2984V12.6762C15.1399 12.7959 15.4749 12.8562 15.8125 12.8541C16.2429 12.8551 16.6682 12.7606 17.0577 12.5774C17.8582 14.722 20.497 21.1557 24.4501 24.4961Z" fill="#FFAA00"/>
<path d="M46.4511 12.6762V24.2984C44.682 26.2849 42.9328 27.6783 41.5097 27.6783C39.5529 27.6783 38.021 26.4034 36.8252 24.4961C40.7783 21.1557 43.417 14.722 44.2175 12.5774C44.607 12.7606 45.0323 12.8551 45.4628 12.8541C45.8004 12.8562 46.1354 12.7959 46.4511 12.6762Z" fill="#FFAA00"/>
<path d="M32.6825 34.379C32.8541 34.5089 33.061 34.5839 33.276 34.5939C33.491 34.6039 33.704 34.5486 33.887 34.4352C34.0699 34.3218 34.2142 34.1556 34.3009 33.9586C34.3876 33.7616 34.4125 33.5429 34.3724 33.3314L33.8486 30.7816L35.2421 29.4178C35.385 29.2762 35.4827 29.0954 35.5229 28.8983C35.563 28.7011 35.5438 28.4965 35.4676 28.3103C35.3915 28.1241 35.2618 27.9647 35.095 27.8522C34.9282 27.7397 34.7317 27.6793 34.5306 27.6784H32.6034L31.5954 25.3066C31.5065 25.1284 31.3697 24.9785 31.2004 24.8738C31.031 24.769 30.8358 24.7135 30.6367 24.7135C30.4376 24.7135 30.2424 24.769 30.0731 24.8738C29.9038 24.9785 29.767 25.1284 29.6781 25.3066L28.67 27.6784H26.7429C26.5417 27.6793 26.3453 27.7397 26.1785 27.8522C26.0117 27.9647 25.882 28.1241 25.8058 28.3103C25.7296 28.4965 25.7104 28.7011 25.7506 28.8983C25.7907 29.0954 25.8884 29.2762 26.0313 29.4178L27.4248 30.7816L26.901 33.3314C26.861 33.5429 26.8859 33.7616 26.9725 33.9586C27.0592 34.1556 27.2035 34.3218 27.3865 34.4352C27.5694 34.5486 27.7824 34.6039 27.9974 34.5939C28.2125 34.5839 28.4194 34.5089 28.591 34.379L30.6367 32.8768L32.6825 34.379ZM46.4492 24.2985C50.3035 19.9896 54.2665 12.8641 55.156 11.2236C55.7996 11.6435 56.5518 11.8668 57.3203 11.8659L49.4141 33.6081V37.5613H11.8594V33.6081L3.95312 11.8659C4.72168 11.8668 5.4738 11.6435 6.11746 11.2236C7.00691 12.8641 10.9699 19.9896 14.8242 24.2985C16.5932 26.285 18.3425 27.6784 19.7656 27.6784C21.7224 27.6784 23.2543 26.4036 24.4501 24.4962C27.6818 19.3472 28.4922 9.53359 28.6305 7.35938C29.237 7.72161 29.9303 7.91287 30.6367 7.91287C31.3432 7.91287 32.0364 7.72161 32.6429 7.35938C32.7813 9.53359 33.5917 19.3472 36.8234 24.4962C38.0192 26.4036 39.551 27.6784 41.5078 27.6784C42.9309 27.6784 44.6802 26.285 46.4492 24.2985Z" fill="#FADF7D"/>
<path d="M31.5947 25.3067L32.6028 27.6786H34.5299C34.7311 27.6794 34.9275 27.7399 35.0943 27.8523C35.2611 27.9648 35.3908 28.1242 35.467 28.3105C35.5432 28.4967 35.5624 28.7013 35.5223 28.8984C35.4821 29.0955 35.3844 29.2764 35.2415 29.4179L33.848 30.7818L34.3718 33.3315C34.4119 33.543 34.3869 33.7617 34.3003 33.9587C34.2136 34.1558 34.0693 34.3219 33.8864 34.4353C33.7034 34.5487 33.4904 34.6041 33.2754 34.594C33.0604 34.584 32.8534 34.5091 32.6819 34.3791L30.6361 32.8769L28.5904 34.3791C28.4188 34.5091 28.2118 34.584 27.9968 34.594C27.7818 34.6041 27.5688 34.5487 27.3858 34.4353C27.2029 34.3219 27.0586 34.1558 26.9719 33.9587C26.8853 33.7617 26.8603 33.543 26.9004 33.3315L27.4242 30.7818L26.0307 29.4179C25.8878 29.2764 25.7901 29.0955 25.7499 28.8984C25.7098 28.7013 25.729 28.4967 25.8052 28.3105C25.8814 28.1242 26.0111 27.9648 26.1779 27.8523C26.3447 27.7399 26.5411 27.6794 26.7423 27.6786H28.6694L29.6775 25.3067C29.7664 25.1285 29.9031 24.9786 30.0725 24.8739C30.2418 24.7691 30.437 24.7136 30.6361 24.7136C30.8352 24.7136 31.0304 24.7691 31.1997 24.8739C31.3691 24.9786 31.5059 25.1285 31.5947 25.3067Z" fill="#D1013E"/>
<path d="M32.6432 5.38282C32.0366 5.74505 31.3434 5.93631 30.6369 5.93631C29.9305 5.93631 29.2372 5.74505 28.6307 5.38282C27.7337 4.85803 27.0812 3.99908 26.8162 2.99414C26.5944 3.81999 26.652 4.69606 26.9803 5.4857C27.3085 6.27534 27.8888 6.93415 28.6307 7.35938C29.2372 7.72161 29.9305 7.91288 30.6369 7.91288C31.3434 7.91288 32.0366 7.72161 32.6432 7.35938C33.3851 6.93415 33.9654 6.27534 34.2936 5.4857C34.6219 4.69606 34.6795 3.81999 34.4576 2.99414C34.1927 3.99908 33.5402 4.85803 32.6432 5.38282Z" fill="#FFAA00"/>
<path d="M59.3267 9.33594C58.7202 9.69817 58.027 9.88944 57.3205 9.88944C56.6141 9.88944 55.9208 9.69817 55.3143 9.33594C54.4173 8.81115 53.7648 7.9522 53.4998 6.94727C53.278 7.77312 53.3356 8.64918 53.6639 9.43882C53.9921 10.2285 54.5724 10.8873 55.3143 11.3125C55.9208 11.6747 56.6141 11.866 57.3205 11.866C58.027 11.866 58.7202 11.6747 59.3267 11.3125C60.0687 10.8873 60.649 10.2285 60.9772 9.43882C61.3055 8.64918 61.3631 7.77312 61.1412 6.94727C60.8763 7.9522 60.2238 8.81115 59.3267 9.33594Z" fill="#FFAA00"/>
<path d="M5.95956 9.33594C5.35306 9.69817 4.65979 9.88944 3.95335 9.88944C3.24691 9.88944 2.55364 9.69817 1.94714 9.33594C1.05009 8.81115 0.397611 7.9522 0.132653 6.94727C-0.0892327 7.77312 -0.0315649 8.64918 0.296662 9.43882C0.624889 10.2285 1.20522 10.8873 1.94714 11.3125C2.55364 11.6747 3.24691 11.866 3.95335 11.866C4.65979 11.866 5.35306 11.6747 5.95956 11.3125C6.70148 10.8873 7.28181 10.2285 7.61004 9.43882C7.93826 8.64918 7.99593 7.77312 7.77405 6.94727C7.50909 7.9522 6.85661 8.81115 5.95956 9.33594Z" fill="#FFAA00"/>
<path d="M17.0578 10.6009C16.6683 10.7841 16.243 10.8786 15.8125 10.8776C15.475 10.8797 15.1399 10.8194 14.8243 10.6997C14.4093 10.5562 14.032 10.3211 13.7204 10.0118C13.4088 9.7024 13.171 9.3268 13.0246 8.91288C12.9112 9.2261 12.8514 9.5562 12.8477 9.8893C12.8447 10.5021 13.0338 11.1004 13.3883 11.6003C13.7428 12.1001 14.245 12.4764 14.8243 12.6763C15.1399 12.7959 15.475 12.8562 15.8125 12.8541C16.243 12.8551 16.6683 12.7606 17.0578 12.5774C17.7303 12.2737 18.2631 11.7268 18.5491 11.0465C18.835 10.3662 18.8531 9.60294 18.5995 8.90991C18.4686 9.28051 18.2647 9.62109 17.9999 9.91153C17.7351 10.202 17.4147 10.4364 17.0578 10.6009Z" fill="#DE8800"/>
<path d="M46.7062 10.6009C46.3167 10.7841 45.8914 10.8786 45.461 10.8776C45.1234 10.8797 44.7883 10.8194 44.4727 10.6997C44.0577 10.5562 43.6804 10.3211 43.3689 10.0118C43.0573 9.7024 42.8195 9.3268 42.673 8.91288C42.5596 9.2261 42.4998 9.5562 42.4961 9.8893C42.4932 10.5021 42.6822 11.1004 43.0367 11.6003C43.3912 12.1001 43.8934 12.4764 44.4727 12.6763C44.7883 12.7959 45.1234 12.8562 45.461 12.8541C45.8914 12.8551 46.3167 12.7606 46.7062 12.5774C47.3788 12.2737 47.9115 11.7268 48.1975 11.0465C48.4835 10.3662 48.5015 9.60294 48.2479 8.90991C48.117 9.28051 47.9131 9.62109 47.6483 9.91153C47.3835 10.202 47.0632 10.4364 46.7062 10.6009Z" fill="#DE8800"/>
<path d="M16.8146 24.3775C16.5096 24.2056 16.2559 23.9554 16.0797 23.6528C15.9036 23.3502 15.8113 23.006 15.8125 22.6559V16.8072C15.8125 16.283 16.0207 15.7803 16.3914 15.4096C16.7621 15.0389 17.2648 14.8307 17.7891 14.8307H17.9758C17.5637 13.8938 17.2544 13.1051 17.0577 12.5774C16.6682 12.7606 16.2429 12.8551 15.8125 12.8541C15.4749 12.8562 15.1399 12.7959 14.8242 12.6762V24.2984C16.5932 26.2849 18.3425 27.6783 19.7656 27.6783C21.7224 27.6783 23.2543 26.4034 24.4501 24.4961C24.3513 24.4101 24.2524 24.3142 24.1536 24.2243C21.418 26.4252 18.3553 25.2442 16.8146 24.3775Z" fill="#FF9C00"/>
<path d="M45.4628 12.8541C45.0323 12.8551 44.607 12.7606 44.2175 12.5774C44.0199 13.1051 43.7115 13.8938 43.2994 14.8307H43.4862C44.0104 14.8307 44.5132 15.0389 44.8839 15.4096C45.2545 15.7803 45.4628 16.283 45.4628 16.8072V22.6559C45.4639 23.006 45.3717 23.3502 45.1955 23.6528C45.0194 23.9554 44.7657 24.2056 44.4607 24.3775C42.9199 25.2442 39.8602 26.4183 37.1276 24.2213C37.0288 24.3122 36.93 24.4091 36.8252 24.4961C38.021 26.4034 39.5529 27.6783 41.5097 27.6783C42.9328 27.6783 44.682 26.2849 46.4511 24.2984V12.6762C46.1354 12.7959 45.8004 12.8562 45.4628 12.8541Z" fill="#FF9C00"/>
<path d="M54.9555 14.6033C55.063 14.3927 55.242 14.2272 55.4604 14.1366C55.6789 14.0461 55.9224 14.0363 56.1474 14.1092L56.4646 14.2149L57.3195 11.8658C56.551 11.8666 55.7988 11.6434 55.1552 11.2234C54.2657 12.8639 50.3027 19.9894 46.4484 24.2984C44.9057 26.0308 43.3788 27.3106 42.0693 27.6101C43.8067 27.2899 49.3362 25.4289 54.9555 14.6033Z" fill="#FFBF40"/>
<path d="M32.6825 34.3788L31.6329 33.608H29.6405L28.591 34.3788C28.4381 34.4931 28.2573 34.5642 28.0675 34.5848C27.8777 34.6055 27.6859 34.5748 27.512 34.4961C27.3381 34.4174 27.1885 34.2934 27.0788 34.1372C26.9691 33.981 26.9032 33.7983 26.8882 33.608H17.7891C17.0027 33.608 16.2486 33.2956 15.6926 32.7396C15.1366 32.1836 14.8242 31.4294 14.8242 30.6431L6.69758 15.2931C6.61782 15.1425 6.57836 14.9738 6.58305 14.8034C6.58773 14.6331 6.6364 14.4668 6.72433 14.3208C6.81225 14.1748 6.93644 14.054 7.08484 13.9702C7.23323 13.8863 7.40078 13.8423 7.57122 13.8423H7.59593C6.8982 12.6455 6.3754 11.6997 6.11351 11.2234C5.47097 11.6426 4.72033 11.8658 3.95312 11.8658L11.8594 33.608V37.5611H49.4141V33.608H34.3853C34.3702 33.7983 34.3044 33.981 34.1947 34.1372C34.0849 34.2934 33.9353 34.4174 33.7614 34.4961C33.5875 34.5748 33.3957 34.6055 33.2059 34.5848C33.0162 34.5642 32.8354 34.4931 32.6825 34.3788Z" fill="#FFBF40"/>
<path d="M29.5694 11.7394C29.6016 11.2374 29.8239 10.7666 30.1912 10.4229C30.5584 10.0791 31.0429 9.88834 31.5459 9.88937H32.8683C32.7467 8.75285 32.6785 7.85253 32.6469 7.35938C32.0404 7.72161 31.3471 7.91287 30.6407 7.91287C29.9342 7.91287 29.241 7.72161 28.6345 7.35938C28.4961 9.53359 27.6857 19.3472 24.454 24.4962C23.2543 26.4036 21.7224 27.6784 19.7656 27.6784C27.6719 27.6784 29.2531 16.2934 29.5694 11.7394Z" fill="#FFBF40"/>
<path d="M36.3818 27.9335C36.2327 27.5653 35.9768 27.2501 35.6471 27.0286C35.3174 26.807 34.929 26.6892 34.5317 26.6902H33.2579L32.5058 24.9192C32.4979 24.9008 32.489 24.882 32.4791 24.8629C32.3092 24.5202 32.0466 24.2319 31.7212 24.0309C31.3957 23.8298 31.0205 23.724 30.6379 23.7254C30.2454 23.7267 29.8614 23.8397 29.5307 24.0511C29.1999 24.2625 28.9361 24.5636 28.7701 24.9192L28.018 26.6902H26.7441C26.3465 26.6911 25.9582 26.8101 25.6284 27.0321C25.2986 27.2542 25.0423 27.5693 24.892 27.9374C24.7417 28.3054 24.7042 28.7099 24.7843 29.0993C24.8643 29.4887 25.0584 29.8456 25.3417 30.1245L26.3488 31.1128L25.9347 33.1318C25.8492 33.5357 25.8898 33.956 26.051 34.336C26.2122 34.7161 26.4862 35.0374 26.836 35.2566C27.1692 35.4706 27.5567 35.5848 27.9528 35.5857C28.394 35.5856 28.8233 35.4424 29.1763 35.1776L30.6379 34.1023L32.0927 35.1716C32.4281 35.4246 32.8333 35.5682 33.2532 35.5831C33.6731 35.5979 34.0873 35.4833 34.4398 35.2546C34.7892 35.0358 35.0631 34.715 35.2245 34.3355C35.3858 33.9561 35.4269 33.5363 35.3421 33.1328L34.9271 31.1108L35.9371 30.1225C36.221 29.8435 36.415 29.4861 36.4943 29.096C36.5735 28.7059 36.5344 28.3011 36.3818 27.9335ZM35.2433 29.4159L33.8498 30.7797L34.3736 33.3295C34.4137 33.541 34.3888 33.7596 34.3021 33.9567C34.2154 34.1537 34.0711 34.3199 33.8882 34.4333C33.7052 34.5467 33.4922 34.602 33.2772 34.592C33.0622 34.5819 32.8553 34.507 32.6837 34.3771L30.6379 32.8768L28.5922 34.379C28.4206 34.509 28.2137 34.5839 27.9986 34.594C27.7836 34.604 27.5706 34.5487 27.3877 34.4352C27.2047 34.3218 27.0604 34.1557 26.9737 33.9586C26.8871 33.7616 26.8622 33.5429 26.9022 33.3315L27.426 30.7817L26.0325 29.4179C25.8896 29.2763 25.7919 29.0955 25.7518 28.8983C25.7116 28.7012 25.7308 28.4966 25.807 28.3104C25.8832 28.1242 26.0129 27.9647 26.1797 27.8523C26.3465 27.7398 26.5429 27.6793 26.7441 27.6785H28.6712L29.6793 25.3066C29.7682 25.1284 29.905 24.9785 30.0743 24.8738C30.2436 24.769 30.4388 24.7135 30.6379 24.7135C30.837 24.7135 31.0322 24.769 31.2016 24.8738C31.3709 24.9785 31.5077 25.1284 31.5966 25.3066L32.6046 27.6785H34.5317C34.7329 27.6793 34.9294 27.7398 35.0962 27.8523C35.263 27.9647 35.3927 28.1242 35.4688 28.3104C35.545 28.4966 35.5642 28.7012 35.5241 28.8983C35.4839 29.0955 35.3862 29.2763 35.2433 29.4179V29.4159Z" fill="#FF9C00"/>
<path d="M46.4492 9.8894C46.995 9.8894 47.4375 9.44694 47.4375 8.90112C47.4375 8.35531 46.995 7.91284 46.4492 7.91284C45.9034 7.91284 45.4609 8.35531 45.4609 8.90112C45.4609 9.44694 45.9034 9.8894 46.4492 9.8894Z" fill="#FFC608"/>
<path d="M16.8008 9.8894C17.3466 9.8894 17.7891 9.44694 17.7891 8.90112C17.7891 8.35531 17.3466 7.91284 16.8008 7.91284C16.255 7.91284 15.8125 8.35531 15.8125 8.90112C15.8125 9.44694 16.255 9.8894 16.8008 9.8894Z" fill="#FFC608"/>
<path d="M31.625 3.95972C32.1708 3.95972 32.6133 3.51725 32.6133 2.97144C32.6133 2.42562 32.1708 1.98315 31.625 1.98315C31.0792 1.98315 30.6367 2.42562 30.6367 2.97144C30.6367 3.51725 31.0792 3.95972 31.625 3.95972Z" fill="#FFFCED"/>
<path d="M59.2969 7.91284C59.8427 7.91284 60.2852 7.47037 60.2852 6.92456C60.2852 6.37875 59.8427 5.93628 59.2969 5.93628C58.7511 5.93628 58.3086 6.37875 58.3086 6.92456C58.3086 7.47037 58.7511 7.91284 59.2969 7.91284Z" fill="#FFFCED"/>
<path d="M5.92969 7.91284C6.4755 7.91284 6.91797 7.47037 6.91797 6.92456C6.91797 6.37875 6.4755 5.93628 5.92969 5.93628C5.38387 5.93628 4.94141 6.37875 4.94141 6.92456C4.94141 7.47037 5.38387 7.91284 5.92969 7.91284Z" fill="#FFFCED"/>
</svg>
