<svg width="39" height="28" viewBox="0 0 39 28" fill="none" xmlns="http://www.w3.org/2000/svg">
<path d="M31.2359 24.252H7.49744C6.80742 24.252 6.24805 24.8113 6.24805 25.5013V26.7507C6.24805 27.4408 6.80742 28.0001 7.49744 28.0001H31.2359C31.9259 28.0001 32.4853 27.4408 32.4853 26.7507V25.5013C32.4853 24.8113 31.9259 24.252 31.2359 24.252Z" fill="#CACACA"/>
<path d="M31.2359 26.7509H7.49744C7.16638 26.7499 6.84917 26.6179 6.61508 26.3838C6.38099 26.1497 6.24904 25.8325 6.24805 25.5015V26.7509C6.24904 27.0819 6.38099 27.3991 6.61508 27.6332C6.84917 27.8673 7.16638 27.9993 7.49744 28.0003H31.2359C31.567 27.9993 31.8842 27.8673 32.1183 27.6332C32.3524 27.3991 32.4843 27.0819 32.4853 26.7509V25.5015C32.4843 25.8325 32.3524 26.1497 32.1183 26.3838C31.8842 26.6179 31.567 26.7499 31.2359 26.7509Z" fill="#9D9D9D"/>
<path d="M3.86688 7.6037C3.40164 7.90809 2.84819 8.04864 2.2941 8.00309C1.74 7.95755 1.21692 7.72852 0.807636 7.35225C0.398351 6.97598 0.126238 6.47397 0.0343608 5.92565C-0.057516 5.37733 0.0360914 4.81403 0.300369 4.3249C0.564646 3.83577 0.984499 3.44874 1.49348 3.22507C2.00246 3.00139 2.5715 2.95385 3.11055 3.08996C3.64959 3.22607 4.12784 3.53806 4.46963 3.97656C4.81141 4.41505 4.99719 4.95501 4.99758 5.51097C4.99787 5.92628 4.89463 6.33512 4.69721 6.70051C4.49979 7.0659 4.21441 7.37632 3.86688 7.6037Z" fill="#DCDBD6"/>
<path d="M20.6351 5.16115C20.2517 5.39012 19.8135 5.51102 19.367 5.51102C18.9204 5.51102 18.4822 5.39012 18.0988 5.16115C17.6264 4.88293 17.2587 4.45709 17.0522 3.94926C16.8457 3.44142 16.812 2.87977 16.9561 2.35086C17.1003 1.82195 17.4144 1.35513 17.8501 1.02235C18.2857 0.689561 18.8187 0.509277 19.367 0.509277C19.9152 0.509277 20.4482 0.689561 20.8838 1.02235C21.3195 1.35513 21.6336 1.82195 21.7778 2.35086C21.922 2.87977 21.8882 3.44142 21.6817 3.94926C21.4752 4.45709 21.1075 4.88293 20.6351 5.16115Z" fill="#DCDBD6"/>
<path d="M36.2312 8.00978C35.737 8.00978 35.2539 7.86323 34.843 7.58866C34.432 7.31409 34.1118 6.92383 33.9226 6.46724C33.7335 6.01065 33.684 5.50822 33.7804 5.02351C33.8769 4.53879 34.1148 4.09355 34.4643 3.74409C34.8138 3.39462 35.259 3.15664 35.7437 3.06022C36.2284 2.96381 36.7309 3.01329 37.1875 3.20242C37.644 3.39154 38.0343 3.71182 38.3089 4.12274C38.5834 4.53367 38.73 5.01678 38.73 5.511C38.73 6.17372 38.4667 6.80929 37.9981 7.2779C37.5295 7.74652 36.8939 8.00978 36.2312 8.00978Z" fill="#DCDBD6"/>
<path d="M29.361 8.52203C29.1614 8.59769 28.9496 8.63581 28.7363 8.63448C28.4642 8.63512 28.1953 8.57538 27.9491 8.45956C27.553 8.27797 27.2324 7.96434 27.0421 7.57236C26.8518 7.18037 26.8037 6.73443 26.906 6.31088C27.0084 5.88734 27.2547 5.51254 27.603 5.25066C27.9513 4.98878 28.3797 4.85611 28.815 4.87537C29.2503 4.89463 29.6654 5.06463 29.9892 5.35624C30.3129 5.64785 30.5252 6.04295 30.5897 6.47388C30.6543 6.90481 30.567 7.34476 30.3428 7.7184C30.1186 8.09205 29.7715 8.37614 29.361 8.52203Z" fill="#C3C3C3"/>
<path d="M10.7833 8.45937C10.5371 8.57518 10.2683 8.63492 9.99621 8.63429C9.78283 8.63562 9.57104 8.59749 9.37152 8.52184C8.96359 8.37595 8.61901 8.09289 8.3967 7.72105C8.17438 7.34921 8.08814 6.91169 8.15272 6.4833C8.2173 6.05491 8.42869 5.66226 8.75074 5.37248C9.07279 5.08271 9.4855 4.9138 9.91831 4.89465C10.3511 4.8755 10.7771 5.00729 11.1235 5.26749C11.4699 5.52769 11.7151 5.90014 11.8173 6.32115C11.9195 6.74216 11.8722 7.18559 11.6836 7.57561C11.495 7.96563 11.1768 8.27802 10.7833 8.45937Z" fill="#C3C3C3"/>
<path d="M15.4566 15.9933C14.7007 17.199 13.7325 18.0048 12.4956 18.0048C11.596 18.0048 10.4903 17.124 9.37207 15.8684V8.52194C9.5716 8.59759 9.78339 8.63572 9.99677 8.63439C10.2688 8.63503 10.5377 8.57528 10.7839 8.45947C11.2899 9.81506 12.9578 13.8818 15.4566 15.9933Z" fill="#403E51"/>
<path d="M29.3629 8.52194V15.8684C28.2447 17.124 27.1389 18.0048 26.2394 18.0048C25.0025 18.0048 24.0342 17.199 23.2783 15.9933C25.7771 13.8818 27.4451 9.81506 27.9511 8.45947C28.1973 8.57528 28.4661 8.63503 28.7382 8.63439C28.9516 8.63572 29.1633 8.59759 29.3629 8.52194Z" fill="#403E51"/>
<path d="M20.657 22.2406C20.7655 22.3227 20.8963 22.3701 21.0322 22.3764C21.1681 22.3828 21.3027 22.3478 21.4184 22.2761C21.534 22.2044 21.6252 22.0994 21.68 21.9749C21.7348 21.8503 21.7506 21.7121 21.7252 21.5784L21.3941 19.9667L22.275 19.1046C22.3653 19.0151 22.4271 18.9008 22.4525 18.7762C22.4778 18.6516 22.4657 18.5223 22.4175 18.4046C22.3694 18.2869 22.2874 18.1861 22.182 18.115C22.0765 18.0439 21.9524 18.0057 21.8252 18.0051H20.607L19.9698 16.5059C19.9137 16.3932 19.8272 16.2985 19.7202 16.2323C19.6131 16.1661 19.4897 16.131 19.3639 16.131C19.238 16.131 19.1146 16.1661 19.0076 16.2323C18.9006 16.2985 18.8141 16.3932 18.7579 16.5059L18.1207 18.0051H16.9026C16.7754 18.0057 16.6513 18.0439 16.5458 18.115C16.4404 18.1861 16.3584 18.2869 16.3102 18.4046C16.2621 18.5223 16.2499 18.6516 16.2753 18.7762C16.3007 18.9008 16.3625 19.0151 16.4528 19.1046L17.3336 19.9667L17.0025 21.5784C16.9772 21.7121 16.993 21.8503 17.0477 21.9749C17.1025 22.0994 17.1937 22.2044 17.3094 22.2761C17.425 22.3478 17.5597 22.3828 17.6956 22.3764C17.8315 22.3701 17.9623 22.3227 18.0708 22.2406L19.3639 21.291L20.657 22.2406ZM29.359 15.8687C31.7953 13.145 34.3004 8.64094 34.8626 7.60394C35.2695 7.8694 35.7449 8.01051 36.2307 8.00999L31.2331 21.7533V24.2521H7.49464V21.7533L2.49707 8.00999C2.98287 8.01051 3.45829 7.8694 3.86516 7.60394C4.42738 8.64094 6.93242 13.145 9.36873 15.8687C10.4869 17.1243 11.5927 18.0051 12.4922 18.0051C13.7291 18.0051 14.6974 17.1993 15.4533 15.9936C17.496 12.7389 18.0083 6.53571 18.0957 5.16138C18.4791 5.39035 18.9173 5.51125 19.3639 5.51125C19.8104 5.51125 20.2486 5.39035 20.632 5.16138C20.7195 6.53571 21.2317 12.7389 23.2745 15.9936C24.0304 17.1993 24.9986 18.0051 26.2355 18.0051C27.1351 18.0051 28.2408 17.1243 29.359 15.8687Z" fill="#CACACA"/>
<path d="M19.9711 16.5057L20.6083 18.005H21.8265C21.9536 18.0055 22.0778 18.0438 22.1832 18.1149C22.2887 18.186 22.3707 18.2867 22.4188 18.4044C22.467 18.5221 22.4791 18.6515 22.4537 18.7761C22.4284 18.9007 22.3666 19.015 22.2763 19.1045L21.3954 19.9666L21.7265 21.5783C21.7518 21.712 21.7361 21.8502 21.6813 21.9747C21.6265 22.0993 21.5353 22.2043 21.4197 22.276C21.304 22.3477 21.1694 22.3827 21.0335 22.3763C20.8976 22.37 20.7668 22.3226 20.6583 22.2405L19.3652 21.2909L18.072 22.2405C17.9636 22.3226 17.8328 22.37 17.6969 22.3763C17.561 22.3827 17.4263 22.3477 17.3107 22.276C17.195 22.2043 17.1038 22.0993 17.049 21.9747C16.9943 21.8502 16.9785 21.712 17.0038 21.5783L17.3349 19.9666L16.4541 19.1045C16.3637 19.015 16.302 18.9007 16.2766 18.7761C16.2512 18.6515 16.2634 18.5221 16.3115 18.4044C16.3597 18.2867 16.4417 18.186 16.5471 18.1149C16.6525 18.0438 16.7767 18.0055 16.9039 18.005H18.122L18.7592 16.5057C18.8154 16.3931 18.9019 16.2984 19.0089 16.2322C19.1159 16.1659 19.2393 16.1309 19.3652 16.1309C19.491 16.1309 19.6144 16.1659 19.7214 16.2322C19.8285 16.2984 19.9149 16.3931 19.9711 16.5057Z" fill="#393939"/>
<path d="M20.6352 3.91175C20.2519 4.14072 19.8136 4.26162 19.3671 4.26162C18.9205 4.26162 18.4823 4.14072 18.099 3.91175C17.5319 3.58003 17.1195 3.03708 16.952 2.40186C16.8118 2.92388 16.8482 3.47764 17.0557 3.97678C17.2632 4.47591 17.63 4.89235 18.099 5.16114C18.4823 5.39011 18.9205 5.51101 19.3671 5.51101C19.8136 5.51101 20.2519 5.39011 20.6352 5.16114C21.1042 4.89235 21.471 4.47591 21.6785 3.97678C21.886 3.47764 21.9224 2.92388 21.7822 2.40186C21.6147 3.03708 21.2023 3.58003 20.6352 3.91175Z" fill="#BBBBB9"/>
<path d="M37.4995 6.41053C37.1161 6.6395 36.6779 6.7604 36.2314 6.7604C35.7848 6.7604 35.3466 6.6395 34.9632 6.41053C34.3962 6.07881 33.9838 5.53586 33.8163 4.90063C33.676 5.42266 33.7125 5.97642 33.9199 6.47556C34.1274 6.97469 34.4942 7.39113 34.9632 7.65992C35.3466 7.88889 35.7848 8.00979 36.2314 8.00979C36.6779 8.00979 37.1161 7.88889 37.4995 7.65992C37.9685 7.39113 38.3353 6.97469 38.5428 6.47556C38.7502 5.97642 38.7867 5.42266 38.6464 4.90063C38.4789 5.53586 38.0665 6.07881 37.4995 6.41053Z" fill="#BBBBB9"/>
<path d="M3.76706 6.41053C3.38369 6.6395 2.94547 6.7604 2.49893 6.7604C2.05238 6.7604 1.61417 6.6395 1.23079 6.41053C0.663764 6.07881 0.251332 5.53586 0.0838508 4.90063C-0.0564044 5.42266 -0.0199523 5.97642 0.187521 6.47556C0.394995 6.97469 0.761824 7.39113 1.23079 7.65992C1.61417 7.88889 2.05238 8.00979 2.49893 8.00979C2.94547 8.00979 3.38369 7.88889 3.76706 7.65992C4.23603 7.39113 4.60286 6.97469 4.81034 6.47556C5.01781 5.97642 5.05426 5.42266 4.91401 4.90063C4.74653 5.53586 4.33409 6.07881 3.76706 6.41053Z" fill="#BBBBB9"/>
<path d="M10.7843 7.21021C10.5381 7.32602 10.2692 7.38577 9.99716 7.38513C9.78378 7.38646 9.57199 7.34833 9.37246 7.27268C9.11016 7.18201 8.87167 7.03337 8.67473 6.83783C8.47778 6.64229 8.32744 6.40488 8.23489 6.14323C8.16321 6.34122 8.1254 6.54988 8.12307 6.76043C8.1212 7.14778 8.2407 7.52599 8.46479 7.84195C8.68887 8.15791 9.00629 8.39575 9.37246 8.52208C9.57199 8.59773 9.78378 8.63585 9.99716 8.63452C10.2692 8.63516 10.5381 8.57542 10.7843 8.45961C11.2094 8.26763 11.5462 7.92193 11.7269 7.49191C11.9077 7.0619 11.9191 6.57942 11.7588 6.14136C11.6761 6.37561 11.5472 6.5909 11.3798 6.77448C11.2124 6.95807 11.0099 7.10623 10.7843 7.21021Z" fill="#BBBBB9"/>
<path d="M29.5235 7.21021C29.2773 7.32602 29.0085 7.38577 28.7364 7.38513C28.523 7.38646 28.3112 7.34833 28.1117 7.27268C27.8494 7.18201 27.6109 7.03337 27.414 6.83783C27.217 6.64229 27.0667 6.40488 26.9741 6.14323C26.9025 6.34122 26.8647 6.54988 26.8623 6.76043C26.8605 7.14778 26.98 7.52599 27.204 7.84195C27.4281 8.15791 27.7455 8.39575 28.1117 8.52208C28.3112 8.59773 28.523 8.63585 28.7364 8.63452C29.0085 8.63516 29.2773 8.57542 29.5235 8.45961C29.9487 8.26763 30.2854 7.92193 30.4662 7.49191C30.647 7.0619 30.6583 6.57942 30.4981 6.14136C30.4153 6.37561 30.2864 6.5909 30.1191 6.77448C29.9517 6.95807 29.7492 7.10623 29.5235 7.21021Z" fill="#BBBBB9"/>
<path d="M10.6302 15.9184C10.4374 15.8097 10.277 15.6516 10.1657 15.4603C10.0543 15.269 9.99603 15.0515 9.99677 14.8301V11.1332C9.99677 10.8018 10.1284 10.484 10.3627 10.2497C10.597 10.0154 10.9148 9.88378 11.2462 9.88378H11.3642C11.1037 9.29157 10.9082 8.79306 10.7839 8.45947C10.5377 8.57528 10.2688 8.63503 9.99677 8.63439C9.78339 8.63572 9.5716 8.59759 9.37207 8.52194V15.8684C10.4903 17.124 11.596 18.0048 12.4956 18.0048C13.7325 18.0048 14.7007 17.199 15.4566 15.9933C15.3941 15.939 15.3317 15.8784 15.2692 15.8215C13.54 17.2127 11.6041 16.4662 10.6302 15.9184Z" fill="#C3C3C3"/>
<path d="M28.7382 8.63439C28.4661 8.63503 28.1973 8.57528 27.9511 8.45947C27.8261 8.79306 27.6312 9.29157 27.3707 9.88378H27.4888C27.8201 9.88378 28.1379 10.0154 28.3722 10.2497C28.6065 10.484 28.7382 10.8018 28.7382 11.1332V14.8301C28.7389 15.0515 28.6806 15.269 28.5692 15.4603C28.4579 15.6516 28.2976 15.8097 28.1047 15.9184C27.1308 16.4662 25.1968 17.2084 23.4695 15.8197C23.407 15.8771 23.3445 15.9383 23.2783 15.9933C24.0342 17.199 25.0025 18.0048 26.2394 18.0048C27.1389 18.0048 28.2447 17.124 29.3629 15.8684V8.52194C29.1633 8.59759 28.9516 8.63572 28.7382 8.63439Z" fill="#C3C3C3"/>
<path d="M34.7401 9.74022C34.8081 9.60707 34.9212 9.50249 35.0593 9.44524C35.1974 9.38799 35.3513 9.38184 35.4935 9.42787L35.6941 9.49472L36.2344 8.00981C35.7486 8.01033 35.2732 7.86922 34.8663 7.60376C34.3041 8.64076 31.7991 13.1448 29.3628 15.8685C28.3876 16.9636 27.4224 17.7726 26.5947 17.9619C27.6929 17.7595 31.1881 16.5832 34.7401 9.74022Z" fill="#9D9D9D"/>
<path d="M20.6609 22.2404L19.9975 21.7531H18.7381L18.0747 22.2404C17.978 22.3126 17.8637 22.3576 17.7438 22.3706C17.6238 22.3837 17.5026 22.3643 17.3926 22.3145C17.2827 22.2648 17.1882 22.1864 17.1188 22.0877C17.0494 21.989 17.0078 21.8734 16.9983 21.7531H11.2467C10.7497 21.7531 10.273 21.5557 9.92155 21.2042C9.57009 20.8528 9.37264 20.3761 9.37264 19.8791L4.23576 10.1763C4.18534 10.0811 4.1604 9.97442 4.16336 9.86673C4.16632 9.75903 4.19709 9.65393 4.25266 9.56164C4.30824 9.46935 4.38674 9.393 4.48054 9.34C4.57435 9.28701 4.68026 9.25918 4.78799 9.25921H4.80361C4.36257 8.5027 4.03211 7.90486 3.86656 7.60376C3.46041 7.86876 2.98593 8.00984 2.50098 8.00981L7.49855 21.7531V24.2519H31.237V21.7531H21.7373C21.7277 21.8734 21.6861 21.989 21.6168 22.0877C21.5474 22.1864 21.4529 22.2648 21.3429 22.3145C21.233 22.3643 21.1118 22.3837 20.9918 22.3706C20.8718 22.3576 20.7576 22.3126 20.6609 22.2404Z" fill="#A7A7A7"/>
<path d="M18.6921 7.93003C18.7125 7.61272 18.853 7.31511 19.0852 7.09783C19.3173 6.88055 19.6235 6.75995 19.9415 6.7606H20.7773C20.7005 6.0422 20.6574 5.4731 20.6374 5.16138C20.254 5.39035 19.8158 5.51124 19.3693 5.51124C18.9227 5.51124 18.4845 5.39035 18.1011 5.16138C18.0137 6.53571 17.5014 12.7389 15.4587 15.9936C14.7003 17.1993 13.732 18.0051 12.4951 18.0051C17.4927 18.0051 18.4922 10.8086 18.6921 7.93003Z" fill="#9D9D9D"/>
<path d="M22.9984 18.1661C22.9042 17.9333 22.7425 17.7341 22.5341 17.5941C22.3256 17.454 22.0801 17.3795 21.829 17.3802H21.0238L20.5484 16.2607C20.5434 16.2491 20.5378 16.2372 20.5315 16.2251C20.4241 16.0085 20.2581 15.8263 20.0524 15.6992C19.8467 15.5721 19.6095 15.5052 19.3677 15.5061C19.1196 15.507 18.8769 15.5784 18.6678 15.712C18.4587 15.8456 18.292 16.0359 18.187 16.2607L17.7116 17.3802H16.9064C16.6551 17.3807 16.4096 17.456 16.2012 17.5963C15.9927 17.7367 15.8307 17.9359 15.7357 18.1685C15.6407 18.4012 15.617 18.6569 15.6676 18.903C15.7182 19.1492 15.8409 19.3747 16.02 19.551L16.6565 20.1757L16.3948 21.452C16.3407 21.7073 16.3664 21.973 16.4683 22.2132C16.5702 22.4534 16.7434 22.6565 16.9645 22.7951C17.1751 22.9303 17.4201 23.0025 17.6704 23.0031C17.9493 23.0031 18.2207 22.9125 18.4438 22.7451L19.3677 22.0654L20.2873 22.7414C20.4993 22.9012 20.7554 22.992 21.0208 23.0014C21.2862 23.0108 21.5481 22.9383 21.7709 22.7938C21.9918 22.6555 22.1649 22.4527 22.2669 22.2128C22.3689 21.973 22.3948 21.7077 22.3413 21.4526L22.0789 20.1745L22.7173 19.5498C22.8968 19.3734 23.0194 19.1475 23.0695 18.9009C23.1196 18.6544 23.0949 18.3985 22.9984 18.1661ZM22.2788 19.1031L21.398 19.9652L21.7291 21.5769C21.7544 21.7106 21.7386 21.8488 21.6838 21.9734C21.6291 22.0979 21.5378 22.2029 21.4222 22.2746C21.3066 22.3463 21.1719 22.3813 21.036 22.3749C20.9001 22.3686 20.7693 22.3212 20.6608 22.2391L19.3677 21.2908L18.0746 22.2403C17.9661 22.3225 17.8353 22.3699 17.6994 22.3762C17.5635 22.3825 17.4288 22.3476 17.3132 22.2759C17.1976 22.2042 17.1063 22.0992 17.0516 21.9746C16.9968 21.8501 16.981 21.7118 17.0063 21.5782L17.3374 19.9664L16.4566 19.1044C16.3663 19.0149 16.3045 18.9006 16.2791 18.776C16.2538 18.6514 16.2659 18.522 16.3141 18.4043C16.3622 18.2866 16.4442 18.1858 16.5496 18.1147C16.6551 18.0436 16.7792 18.0054 16.9064 18.0049H18.1246L18.7617 16.5056C18.8179 16.393 18.9044 16.2983 19.0114 16.232C19.1185 16.1658 19.2418 16.1307 19.3677 16.1307C19.4936 16.1307 19.6169 16.1658 19.724 16.232C19.831 16.2983 19.9175 16.393 19.9737 16.5056L20.6109 18.0049H21.829C21.9562 18.0054 22.0803 18.0436 22.1858 18.1147C22.2912 18.1858 22.3732 18.2866 22.4213 18.4043C22.4695 18.522 22.4816 18.6514 22.4563 18.776C22.4309 18.9006 22.3691 19.0149 22.2788 19.1044V19.1031Z" fill="#818181"/>
<path d="M29.363 6.76038C29.708 6.76038 29.9877 6.48069 29.9877 6.13568C29.9877 5.79067 29.708 5.51099 29.363 5.51099C29.018 5.51099 28.7383 5.79067 28.7383 6.13568C28.7383 6.48069 29.018 6.76038 29.363 6.76038Z" fill="#DCDBD6"/>
<path d="M10.6188 6.76038C10.9638 6.76038 11.2435 6.48069 11.2435 6.13568C11.2435 5.79067 10.9638 5.51099 10.6188 5.51099C10.2738 5.51099 9.99414 5.79067 9.99414 6.13568C9.99414 6.48069 10.2738 6.76038 10.6188 6.76038Z" fill="#DCDBD6"/>
<path d="M19.9909 3.01233C20.3359 3.01233 20.6156 2.73265 20.6156 2.38764C20.6156 2.04263 20.3359 1.76294 19.9909 1.76294C19.6459 1.76294 19.3662 2.04263 19.3662 2.38764C19.3662 2.73265 19.6459 3.01233 19.9909 3.01233Z" fill="#FFFCED"/>
<path d="M37.4811 5.51111C37.8262 5.51111 38.1058 5.23143 38.1058 4.88642C38.1058 4.54141 37.8262 4.26172 37.4811 4.26172C37.1361 4.26172 36.8564 4.54141 36.8564 4.88642C36.8564 5.23143 37.1361 5.51111 37.4811 5.51111Z" fill="#FFFCED"/>
<path d="M3.74872 5.51111C4.09373 5.51111 4.37342 5.23143 4.37342 4.88642C4.37342 4.54141 4.09373 4.26172 3.74872 4.26172C3.40371 4.26172 3.12402 4.54141 3.12402 4.88642C3.12402 5.23143 3.40371 5.51111 3.74872 5.51111Z" fill="#FFFCED"/>
</svg>
