<svg width="22" height="18" viewBox="0 0 22 18" fill="none" xmlns="http://www.w3.org/2000/svg">
<path d="M18.3219 15.6689H3.67814L1.16876 4.63457L5.77501 11.6814L7.73439 1.23145L11 11.6814L14.2656 1.23145L16.225 11.6814L20.8313 4.63457L18.3219 15.6689Z" fill="#FBD303"/>
<path d="M18.4594 17.1814H3.54067C3.12817 17.1814 2.78442 16.8377 2.78442 16.4252C2.78442 16.0127 3.12817 15.6689 3.54067 15.6689H18.4594C18.8719 15.6689 19.2157 16.0127 19.2157 16.4252C19.2157 16.8377 18.8719 17.1814 18.4594 17.1814Z" fill="#C2382E"/>
<path d="M2.3719 4.70312C2.3719 5.35625 1.85628 5.87187 1.20315 5.87187C0.550025 5.87187 0.0344 5.35625 0.0344 4.70312C2.50228e-05 4.05 0.51565 3.5 1.16878 3.5C1.8219 3.5 2.3719 4.05 2.3719 4.70312Z" fill="#F8B517"/>
<path d="M2.3719 4.70322C2.3719 5.35635 1.85627 5.87197 1.20315 5.87197C0.825024 5.87197 0.481274 5.7001 0.275024 5.4251C0.446899 5.5626 0.687524 5.63135 0.962524 5.63135C1.61565 5.63135 2.13127 5.11572 2.13127 4.4626C2.13127 4.1876 2.02815 3.94697 1.89065 3.74072C2.20002 3.94697 2.3719 4.29072 2.3719 4.70322Z" fill="#EA9523"/>
<path opacity="0.4" d="M1.13443 4.01553C1.20318 4.11865 1.13443 4.3249 0.962551 4.4624C0.790676 4.5999 0.584426 4.63428 0.481301 4.53115C0.412551 4.42803 0.481301 4.22178 0.653176 4.08428C0.825051 3.94678 1.0313 3.9124 1.13443 4.01553Z" fill="white"/>
<path d="M22 4.70324C22 5.35636 21.4844 5.87199 20.8313 5.87199C20.1782 5.87199 19.6625 5.35636 19.6625 4.70324C19.6625 4.05011 20.1782 3.53449 20.8313 3.53449C21.4844 3.50011 22 4.05011 22 4.70324Z" fill="#F4A300"/>
<path d="M22 4.70327C22 5.3564 21.4844 5.87202 20.8313 5.87202C20.4531 5.87202 20.1094 5.70015 19.9031 5.42515C20.1094 5.56265 20.35 5.66577 20.625 5.66577C21.2781 5.66577 21.7938 5.15015 21.7938 4.49702C21.7938 4.22202 21.6906 3.9814 21.5531 3.77515C21.8281 3.94702 22 4.29077 22 4.70327Z" fill="#EA9523"/>
<path opacity="0.4" d="M20.7969 4.01577C20.8657 4.1189 20.7969 4.32515 20.625 4.46265C20.4532 4.60015 20.2469 4.63452 20.1438 4.5314C20.075 4.42827 20.1438 4.22202 20.3157 4.08452C20.4875 3.94702 20.6938 3.91265 20.7969 4.01577Z" fill="white"/>
<path d="M8.90317 1.9876C8.90317 2.64072 8.38755 3.15635 7.73442 3.15635C7.0813 3.15635 6.56567 2.64072 6.56567 1.9876C6.56567 1.33447 7.0813 0.818848 7.73442 0.818848C8.38755 0.818848 8.90317 1.33447 8.90317 1.9876Z" fill="#F4A300"/>
<path d="M15.4688 1.9876C15.4688 2.64072 14.9532 3.15635 14.3 3.15635C13.6469 3.15635 13.1313 2.64072 13.1313 1.9876C13.1313 1.33447 13.6469 0.818848 14.3 0.818848C14.9188 0.818848 15.4688 1.33447 15.4688 1.9876Z" fill="#F4A300"/>
<path d="M8.90315 1.9877C8.90315 2.64082 8.38752 3.15645 7.7344 3.15645C7.35627 3.15645 7.01252 2.98457 6.80627 2.70957C7.01252 2.84707 7.25315 2.9502 7.52815 2.9502C8.18127 2.9502 8.6969 2.43457 8.6969 1.78145C8.6969 1.50645 8.59377 1.26582 8.45627 1.05957C8.73127 1.26582 8.90315 1.60957 8.90315 1.9877Z" fill="#EA9523"/>
<path opacity="0.4" d="M7.66568 1.23135C7.73443 1.33447 7.66568 1.54072 7.4938 1.67822C7.32193 1.81572 7.11568 1.8501 7.01255 1.74697C6.9438 1.64385 7.01255 1.4376 7.18443 1.3001C7.39068 1.1626 7.59693 1.12822 7.66568 1.23135Z" fill="white"/>
<path d="M15.4688 1.9877C15.4688 2.64082 14.9532 3.15645 14.3001 3.15645C13.9219 3.15645 13.5782 2.98457 13.3719 2.70957C13.5782 2.84707 13.8188 2.9502 14.0938 2.9502C14.7469 2.9502 15.2626 2.43457 15.2626 1.78145C15.2626 1.50645 15.1594 1.26582 15.0219 1.05957C15.2626 1.26582 15.4688 1.60957 15.4688 1.9877Z" fill="#EA9523"/>
<path opacity="0.4" d="M14.3688 1.23135C14.4376 1.33447 14.3688 1.54072 14.1969 1.67822C14.0251 1.81572 13.8188 1.8501 13.7157 1.74697C13.6469 1.64385 13.7157 1.4376 13.8876 1.3001C14.0594 1.1626 14.2657 1.12822 14.3688 1.23135Z" fill="white"/>
<path d="M3.7813 12.3689C3.95317 13.1251 3.85005 13.8126 3.54067 13.8814C3.26567 13.9845 2.88755 13.4345 2.71567 12.6783C2.5438 11.922 2.64692 11.2345 2.9563 11.1658C3.26567 11.0626 3.60942 11.6126 3.7813 12.3689Z" fill="#E2431E"/>
<path d="M3.81566 13.5034C3.78129 13.7096 3.67816 13.8471 3.54066 13.8815C3.26566 13.9846 2.88754 13.4346 2.71566 12.6784C2.57816 12.0252 2.64691 11.4409 2.81879 11.2346C2.75004 11.5096 2.75004 11.9221 2.85316 12.369C3.02504 13.1252 3.36879 13.6409 3.67816 13.5721C3.71254 13.5721 3.78129 13.5377 3.81566 13.5034Z" fill="#A6422E"/>
<path opacity="0.4" d="M3.40316 12.0251C3.43754 12.1626 3.43754 12.2657 3.40316 12.3001C3.36879 12.3344 3.26566 12.2313 3.23129 12.1282C3.19691 11.9907 3.19691 11.8876 3.23129 11.8532C3.30004 11.7844 3.36879 11.8876 3.40316 12.0251Z" fill="white"/>
<path d="M18.2188 12.3689C18.0469 13.1251 18.15 13.8126 18.4594 13.8814C18.7344 13.9845 19.1125 13.4345 19.2844 12.6783C19.4563 11.922 19.3532 11.2345 19.0438 11.1658C18.7344 11.0626 18.3907 11.6126 18.2188 12.3689Z" fill="#E2431E"/>
<path d="M18.1844 13.5034C18.2188 13.7096 18.3219 13.8471 18.4594 13.8815C18.7344 13.9846 19.1125 13.4346 19.2844 12.6784C19.4219 12.0252 19.3531 11.4409 19.1813 11.2346C19.25 11.5096 19.25 11.9221 19.1469 12.369C18.975 13.1252 18.6313 13.6409 18.3219 13.5721C18.2875 13.5721 18.2188 13.5377 18.1844 13.5034Z" fill="#A6422E"/>
<path opacity="0.4" d="M18.5969 12.0251C18.5625 12.1626 18.5625 12.2657 18.5969 12.3001C18.6313 12.3344 18.7344 12.2313 18.7688 12.1282C18.8031 11.9907 18.8031 11.8876 18.7688 11.8532C18.7 11.7844 18.6313 11.8876 18.5969 12.0251Z" fill="white"/>
<path d="M9.21253 12.3689C9.31566 13.1251 9.10941 13.8126 8.69691 13.847C8.28441 13.9157 7.87191 13.3314 7.73441 12.5751C7.63128 11.8189 7.83753 11.1314 8.25003 11.097C8.66253 11.0626 9.07503 11.6126 9.21253 12.3689Z" fill="#E2431E"/>
<path d="M9.07505 13.5033C8.97192 13.7095 8.83443 13.847 8.66255 13.847C8.25005 13.9158 7.83755 13.3314 7.70005 12.5751C7.59692 11.922 7.7688 11.3376 8.0438 11.1658C7.9063 11.4408 7.87193 11.8533 7.94068 12.3001C8.0438 13.0564 8.49067 13.6408 8.90317 13.572C8.97192 13.572 9.04067 13.5376 9.07505 13.5033Z" fill="#A6422E"/>
<path opacity="0.4" d="M8.76565 11.9907C8.80002 12.1282 8.80002 12.2313 8.73127 12.2657C8.66252 12.3 8.5594 12.1969 8.52502 12.0594C8.49065 11.9219 8.49065 11.8188 8.5594 11.7844C8.62815 11.7844 8.6969 11.8532 8.76565 11.9907Z" fill="white"/>
<path d="M12.4782 12.3689C12.3751 13.1251 12.5813 13.8126 12.9938 13.847C13.4063 13.9157 13.8188 13.3314 13.9563 12.5751C14.0594 11.8189 13.8532 11.1314 13.4407 11.097C12.9938 11.0626 12.5813 11.6126 12.4782 12.3689Z" fill="#E2431E"/>
<path d="M12.5813 13.5033C12.6844 13.7095 12.8219 13.847 12.9938 13.847C13.4063 13.9158 13.8188 13.3314 13.9563 12.5751C14.0594 11.922 13.8875 11.3376 13.6125 11.1658C13.75 11.4408 13.7844 11.8533 13.7157 12.3001C13.6125 13.0564 13.1657 13.6408 12.7532 13.572C12.6844 13.572 12.6157 13.5376 12.5813 13.5033Z" fill="#A6422E"/>
<path opacity="0.4" d="M12.925 11.9907C12.8907 12.1282 12.8907 12.2313 12.9594 12.2657C13.0282 12.3 13.1313 12.1969 13.1657 12.0594C13.2 11.9219 13.2 11.8188 13.1313 11.7844C13.0625 11.7844 12.9594 11.8532 12.925 11.9907Z" fill="white"/>
<path d="M8.11249 3.74072L10.1406 10.7532L8.31874 9.99697L8.11249 3.74072Z" fill="#F8B517"/>
<path d="M14.4031 3.74072L15.4688 10.7532L14.6094 11.5095L13.4062 9.48135L14.4031 3.74072Z" fill="#F8B517"/>
<path d="M19.9719 7.04077L19.0094 10.7533L18.0469 11.2345L19.9719 7.04077Z" fill="#F8B517"/>
<path d="M2.02814 7.04077L2.99064 10.7533L3.95314 11.2345L2.02814 7.04077Z" fill="#F8B517"/>
</svg>
