<svg width="17" height="17" viewBox="0 0 17 17" fill="none" xmlns="http://www.w3.org/2000/svg">
<path d="M13.6981 3.97146C12.7421 3.55961 11.7169 3.25618 10.6449 3.08239C10.6254 3.07904 10.6059 3.08742 10.5959 3.10419C10.464 3.32435 10.318 3.61158 10.2157 3.83734C9.06275 3.67529 7.91574 3.67529 6.78645 3.83734C6.68415 3.60656 6.5328 3.32435 6.40036 3.10419C6.3903 3.08798 6.3708 3.0796 6.35128 3.08239C5.27994 3.25563 4.25473 3.55906 3.29808 3.97146C3.2898 3.97481 3.2827 3.98041 3.27799 3.98767C1.33337 6.71522 0.800656 9.37573 1.06199 12.0033C1.06317 12.0161 1.07086 12.0284 1.0815 12.0362C2.36451 12.9208 3.60732 13.4578 4.82705 13.8138C4.84657 13.8194 4.86725 13.8127 4.87968 13.7976C5.1682 13.4277 5.4254 13.0376 5.64592 12.6274C5.65894 12.6034 5.64651 12.5749 5.61992 12.5654C5.21196 12.4201 4.8235 12.243 4.44983 12.0418C4.42027 12.0256 4.41791 11.9859 4.4451 11.9669C4.52373 11.9116 4.60239 11.854 4.67747 11.7959C4.69106 11.7853 4.70999 11.7831 4.72596 11.7898C7.1808 12.842 9.83846 12.842 12.2643 11.7898C12.2803 11.7825 12.2992 11.7848 12.3134 11.7954C12.3885 11.8535 12.4672 11.9116 12.5464 11.9669C12.5736 11.9859 12.5718 12.0256 12.5422 12.0418C12.1686 12.2469 11.7801 12.4201 11.3716 12.5649C11.345 12.5744 11.3331 12.6034 11.3462 12.6274C11.5714 13.037 11.8286 13.4271 12.1118 13.797C12.1236 13.8127 12.1449 13.8194 12.1644 13.8138C13.3901 13.4578 14.6329 12.9208 15.9159 12.0362C15.9271 12.0284 15.9342 12.0167 15.9354 12.0038C16.2482 8.9661 15.4116 6.32741 13.7176 3.98822C13.7135 3.98041 13.7064 3.97481 13.6981 3.97146ZM6.01251 10.4034C5.27344 10.4034 4.66446 9.76633 4.66446 8.98399C4.66446 8.20165 5.26163 7.56462 6.01251 7.56462C6.7693 7.56462 7.37238 8.20724 7.36055 8.98399C7.36055 9.76633 6.76338 10.4034 6.01251 10.4034ZM10.9967 10.4034C10.2577 10.4034 9.64868 9.76633 9.64868 8.98399C9.64868 8.20165 10.2458 7.56462 10.9967 7.56462C11.7535 7.56462 12.3566 8.20724 12.3448 8.98399C12.3448 9.76633 11.7535 10.4034 10.9967 10.4034Z" fill="#9194C8"/>
</svg>
