<svg width="102" height="59" viewBox="0 0 102 59" fill="none" xmlns="http://www.w3.org/2000/svg">
<rect width="102" height="59" rx="29.5" fill="#19172A"/>
<path d="M57.072 25.228V35H55.112V30.842H50.926V35H48.966V25.228H50.926V29.246H55.112V25.228H57.072ZM66.2112 30.954C66.2112 31.234 66.1925 31.486 66.1552 31.71H60.4852C60.5318 32.27 60.7278 32.7087 61.0732 33.026C61.4185 33.3433 61.8432 33.502 62.3472 33.502C63.0752 33.502 63.5932 33.1893 63.9012 32.564H66.0152C65.7912 33.3107 65.3618 33.9267 64.7272 34.412C64.0925 34.888 63.3132 35.126 62.3892 35.126C61.6425 35.126 60.9705 34.9627 60.3732 34.636C59.7852 34.3 59.3232 33.8287 58.9872 33.222C58.6605 32.6153 58.4972 31.9153 58.4972 31.122C58.4972 30.3193 58.6605 29.6147 58.9872 29.008C59.3138 28.4013 59.7712 27.9347 60.3592 27.608C60.9472 27.2813 61.6238 27.118 62.3892 27.118C63.1265 27.118 63.7845 27.2767 64.3632 27.594C64.9512 27.9113 65.4038 28.364 65.7212 28.952C66.0478 29.5307 66.2112 30.198 66.2112 30.954ZM64.1812 30.394C64.1718 29.89 63.9898 29.4887 63.6352 29.19C63.2805 28.882 62.8465 28.728 62.3332 28.728C61.8478 28.728 61.4372 28.8773 61.1012 29.176C60.7745 29.4653 60.5738 29.8713 60.4992 30.394H64.1812ZM69.6018 24.64V35H67.6418V24.64H69.6018ZM73.4983 28.364C73.7503 28.0093 74.0956 27.7153 74.5343 27.482C74.9823 27.2393 75.4909 27.118 76.0603 27.118C76.7229 27.118 77.3203 27.2813 77.8523 27.608C78.3936 27.9347 78.8183 28.4013 79.1263 29.008C79.4436 29.6053 79.6023 30.3007 79.6023 31.094C79.6023 31.8873 79.4436 32.592 79.1263 33.208C78.8183 33.8147 78.3936 34.286 77.8523 34.622C77.3203 34.958 76.7229 35.126 76.0603 35.126C75.4909 35.126 74.9869 35.0093 74.5483 34.776C74.1189 34.5427 73.7689 34.2487 73.4983 33.894V38.696H71.5383V27.244H73.4983V28.364ZM77.6003 31.094C77.6003 30.6273 77.5023 30.226 77.3063 29.89C77.1196 29.5447 76.8676 29.2833 76.5503 29.106C76.2423 28.9287 75.9063 28.84 75.5423 28.84C75.1876 28.84 74.8516 28.9333 74.5343 29.12C74.2263 29.2973 73.9743 29.5587 73.7783 29.904C73.5916 30.2493 73.4983 30.6553 73.4983 31.122C73.4983 31.5887 73.5916 31.9947 73.7783 32.34C73.9743 32.6853 74.2263 32.9513 74.5343 33.138C74.8516 33.3153 75.1876 33.404 75.5423 33.404C75.9063 33.404 76.2423 33.3107 76.5503 33.124C76.8676 32.9373 77.1196 32.6713 77.3063 32.326C77.5023 31.9807 77.6003 31.57 77.6003 31.094Z" fill="#9F9BBF"/>
<g clip-path="url(#clip0_121_2)">
<path d="M38.5 19.9167H27.5C26.8981 19.9167 26.3021 20.0353 25.7461 20.2656C25.19 20.496 24.6847 20.8336 24.2591 21.2592C23.3996 22.1187 22.9167 23.2845 22.9167 24.5001V31.8334C22.9165 32.89 23.2813 33.9142 23.9495 34.7327C24.6177 35.5512 25.5481 36.1138 26.5834 36.3251V38.2501C26.5826 38.6125 26.6893 38.9671 26.89 39.2689C27.0907 39.5708 27.3763 39.8064 27.7109 39.9459C27.9352 40.0363 28.1748 40.083 28.4167 40.0834C28.9021 40.0814 29.3669 39.8869 29.7092 39.5426L32.8442 36.4167H38.5C39.1019 36.4167 39.6979 36.2982 40.254 36.0679C40.8101 35.8375 41.3153 35.4999 41.7409 35.0743C42.1665 34.6487 42.5041 34.1435 42.7345 33.5874C42.9648 33.0313 43.0834 32.4353 43.0834 31.8334V24.5001C43.0834 23.8982 42.9648 23.3022 42.7345 22.7461C42.5041 22.19 42.1665 21.6848 41.7409 21.2592C41.3153 20.8336 40.8101 20.496 40.254 20.2656C39.6979 20.0353 39.1019 19.9167 38.5 19.9167ZM28.875 29.5417C28.6031 29.5417 28.3372 29.4611 28.1111 29.31C27.885 29.1589 27.7088 28.9442 27.6047 28.6929C27.5006 28.4417 27.4734 28.1652 27.5264 27.8985C27.5795 27.6318 27.7105 27.3868 27.9027 27.1945C28.095 27.0022 28.34 26.8712 28.6068 26.8182C28.8735 26.7651 29.15 26.7923 29.4012 26.8964C29.6525 27.0005 29.8672 27.1767 30.0183 27.4028C30.1694 27.629 30.25 27.8948 30.25 28.1667C30.25 28.5314 30.1052 28.8812 29.8473 29.139C29.5894 29.3969 29.2397 29.5417 28.875 29.5417ZM33 29.5417C32.7281 29.5417 32.4622 29.4611 32.2361 29.31C32.01 29.1589 31.8338 28.9442 31.7297 28.6929C31.6256 28.4417 31.5984 28.1652 31.6514 27.8985C31.7045 27.6318 31.8355 27.3868 32.0277 27.1945C32.22 27.0022 32.465 26.8712 32.7318 26.8182C32.9985 26.7651 33.275 26.7923 33.5262 26.8964C33.7775 27.0005 33.9922 27.1767 34.1433 27.4028C34.2944 27.629 34.375 27.8948 34.375 28.1667C34.375 28.5314 34.2302 28.8812 33.9723 29.139C33.7144 29.3969 33.3647 29.5417 33 29.5417ZM37.125 29.5417C36.8531 29.5417 36.5872 29.4611 36.3611 29.31C36.135 29.1589 35.9588 28.9442 35.8547 28.6929C35.7506 28.4417 35.7234 28.1652 35.7764 27.8985C35.8295 27.6318 35.9605 27.3868 36.1527 27.1945C36.345 27.0022 36.59 26.8712 36.8568 26.8182C37.1235 26.7651 37.4 26.7923 37.6512 26.8964C37.9025 27.0005 38.1172 27.1767 38.2683 27.4028C38.4194 27.629 38.5 27.8948 38.5 28.1667C38.5 28.5314 38.3552 28.8812 38.0973 29.139C37.8394 29.3969 37.4897 29.5417 37.125 29.5417Z" fill="#A6A4BC"/>
</g>
<defs>
<clipPath id="clip0_121_2">
<rect width="22" height="22" fill="white" transform="translate(22 19)"/>
</clipPath>
</defs>
</svg>
