<svg width="59" height="59" viewBox="0 0 59 59" fill="none" xmlns="http://www.w3.org/2000/svg">
<rect width="59" height="59" rx="29.5" fill="#19172A"/>
<path fill-rule="evenodd" clip-rule="evenodd" d="M41.25 20.75C41.25 19.7835 40.4665 19 39.5 19H18.5C17.5335 19 16.75 19.7835 16.75 20.75C16.75 21.7165 17.5335 22.5 18.5 22.5H39.5C40.4665 22.5 41.25 21.7165 41.25 20.75ZM41.25 29.5C41.25 28.5335 40.4665 27.75 39.5 27.75H25.5C24.5335 27.75 23.75 28.5335 23.75 29.5C23.75 30.4665 24.5335 31.25 25.5 31.25H39.5C40.4665 31.25 41.25 30.4665 41.25 29.5ZM39.5 36.5C40.4665 36.5 41.25 37.2835 41.25 38.25C41.25 39.2165 40.4665 40 39.5 40H18.5C17.5335 40 16.75 39.2165 16.75 38.25C16.75 37.2835 17.5335 36.5 18.5 36.5H39.5Z" fill="#A6A4BC"/>
</svg>
