<svg width="59" height="59" viewBox="0 0 59 59" fill="none" xmlns="http://www.w3.org/2000/svg">
<circle cx="29.5" cy="29.5" r="29.5" fill="#19172A"/>
<path d="M33.3575 38.1001C32.9727 39.5951 31.6155 40.7001 30 40.7001C28.3846 40.7001 27.0274 39.5951 26.6426 38.1001H33.3575Z" fill="#A6A4BC"/>
<path d="M39.3909 34.9202C38.6252 34.5853 37.3668 33.4846 37.3668 29.8667V25.9667C37.3668 22.5824 34.9405 19.7683 31.7334 19.1595L31.3001 19.0771C31.3001 18.8401 31.3001 18.7118 31.3001 18.6C31.3001 17.882 30.7181 17.3 30.0001 17.3C29.2821 17.3 28.7001 17.882 28.7001 18.6V19.0771L28.2668 19.1595C25.0597 19.7683 22.6334 22.5824 22.6334 25.9667V29.8667C22.6334 33.4846 21.375 34.5853 20.6093 34.9202C20.2553 35.0749 20.0334 35.429 20.0334 35.8151C20.0334 36.3589 20.4746 36.8001 21.0184 36.8001H38.9814C39.5257 36.8001 39.9668 36.3589 39.9668 35.8151C39.9668 35.429 39.7449 35.0749 39.3909 34.9202Z" fill="#A6A4BC"/>
</svg>
