<svg width="26" height="26" viewBox="0 0 26 26" fill="none" xmlns="http://www.w3.org/2000/svg">
<g clip-path="url(#clip0_2_3464)">
<path d="M19.4172 8.91849C16.3968 7.22915 11.549 4.51646 4.02973 0.30623C3.52278 -0.0285714 2.9395 -0.0724465 2.43555 0.0981281L15.3365 12.9991L19.4172 8.91849Z" fill="#32BBFF"/>
<path d="M2.43553 0.0981445C2.34107 0.130137 2.24916 0.168731 2.16126 0.215348C1.60474 0.51638 1.1958 1.09564 1.1958 1.82827V24.17C1.1958 24.9027 1.60469 25.4819 2.16126 25.7829C2.24901 25.8295 2.34087 25.8682 2.43522 25.9004L15.3365 12.9991L2.43553 0.0981445Z" fill="#32BBFF"/>
<path d="M15.3364 12.999L2.43506 25.9003C2.93917 26.0721 3.52244 26.0316 4.02954 25.6919C11.3216 21.6086 16.1148 18.9281 19.1701 17.2243C19.2552 17.1766 19.3385 17.1298 19.4209 17.0836L15.3364 12.999Z" fill="#32BBFF"/>
<path d="M1.1958 12.999V24.1699C1.1958 24.9025 1.60469 25.4818 2.16126 25.7828C2.24901 25.8293 2.34087 25.8681 2.43522 25.9003L15.3365 12.999H1.1958Z" fill="#2C9FD9"/>
<path d="M4.02958 0.306105C3.42757 -0.091411 2.71765 -0.0800868 2.16113 0.215258L15.1406 13.1948L19.417 8.91837C16.3967 7.22902 11.5489 4.51634 4.02958 0.306105Z" fill="#29CC5E"/>
<path d="M15.1407 12.8032L2.16113 25.7827C2.7177 26.078 3.42757 26.095 4.02958 25.6918C11.3217 21.6085 16.1148 18.928 19.1701 17.2242C19.2552 17.1765 19.3385 17.1297 19.4209 17.0835L15.1407 12.8032Z" fill="#D93F21"/>
<path d="M24.8044 12.9989C24.8044 12.3799 24.492 11.7552 23.8729 11.4088C23.8729 11.4088 22.7152 10.7628 19.1664 8.77783L14.9453 12.9989L19.1705 17.2242C22.6803 15.2535 23.8729 14.589 23.8729 14.589C24.492 14.2427 24.8044 13.618 24.8044 12.9989Z" fill="#FFD500"/>
<path d="M23.8729 14.5892C24.492 14.2428 24.8044 13.618 24.8044 12.999H14.9453L19.1705 17.2243C22.6804 15.2537 23.8729 14.5892 23.8729 14.5892Z" fill="#FFAA00"/>
</g>
<defs>
<clipPath id="clip0_2_3464">
<rect width="26" height="26" fill="white"/>
</clipPath>
</defs>
</svg>
