<svg width="17" height="16" viewBox="0 0 17 16" fill="none" xmlns="http://www.w3.org/2000/svg">
<path d="M10.6584 16H5.53844C4.09844 16 3.29844 16 2.65844 15.68C2.01844 15.36 1.53844 14.88 1.29844 14.32C0.898438 13.6 0.898438 12.8 0.898438 11.36V6.24C0.898438 4.8 0.898438 4 1.21844 3.36C1.53844 2.72 2.01844 2.24 2.57844 2C3.29844 1.6 4.09844 1.6 5.53844 1.6H7.29844C7.77844 1.6 8.09844 1.92 8.09844 2.4C8.09844 2.88 7.77844 3.2 7.29844 3.2H5.53844C4.33844 3.2 3.69844 3.2 3.37844 3.36C3.05844 3.52 2.81844 3.76 2.65844 4.08C2.49844 4.4 2.49844 5.04 2.49844 6.24V11.36C2.49844 12.56 2.49844 13.2 2.65844 13.52C2.81844 13.84 3.05844 14.08 3.37844 14.24C3.69844 14.4 4.33844 14.4 5.53844 14.4H10.6584C11.8584 14.4 12.4984 14.4 12.8184 14.24C13.1384 14.08 13.3784 13.84 13.5384 13.52C13.6984 13.2 13.6984 12.56 13.6984 11.36V9.6C13.6984 9.12 14.0184 8.8 14.4984 8.8C14.9784 8.8 15.2984 9.12 15.2984 9.6V11.36C15.2984 12.8 15.2984 13.6 14.9784 14.24C14.6584 14.88 14.1784 15.36 13.6184 15.6C12.8984 16 12.0984 16 10.6584 16ZM9.69844 8C9.45844 8 9.29844 7.92 9.13844 7.76C8.81844 7.44 8.81844 6.96 9.13844 6.64L14.1784 1.6H11.2984C10.8184 1.6 10.4984 1.28 10.4984 0.8C10.4984 0.32 10.8184 0 11.2984 0H16.0984C16.1784 0 16.3384 -7.7486e-08 16.4184 0.0799999C16.4984 0.0799999 16.5784 0.16 16.6584 0.24C16.7384 0.32 16.8184 0.4 16.8184 0.48C16.8984 0.56 16.8984 0.72 16.8984 0.8V5.6C16.8984 6.08 16.5784 6.4 16.0984 6.4C15.6184 6.4 15.2984 6.08 15.2984 5.6V2.72L10.2584 7.76C10.0984 7.92 9.93844 8 9.69844 8Z" fill="#6C6984"/>
</svg>
