<svg width="13" height="14" viewBox="0 0 13 14" fill="none" xmlns="http://www.w3.org/2000/svg">
<path d="M7.00726 10.8033L12.7923 5.01815C12.9262 4.88434 13 4.70573 13 4.51527C13 4.32482 12.9262 4.1462 12.7923 4.0124L12.3664 3.58636C12.0888 3.30914 11.6378 3.30914 11.3606 3.58636L6.5027 8.44431L1.63936 3.58097C1.50545 3.44717 1.32694 3.37329 1.13659 3.37329C0.946033 3.37329 0.767522 3.44717 0.633507 3.58097L0.207681 4.00701C0.0737715 4.14092 1.12826e-08 4.31943 1.35537e-08 4.50988C1.58249e-08 4.70034 0.0737715 4.87895 0.207681 5.01276L5.99802 10.8033C6.13236 10.9374 6.31171 11.0111 6.50238 11.0107C6.69378 11.0111 6.87303 10.9374 7.00726 10.8033Z" fill="#9F9BBF"/>
</svg>
