<svg width="20" height="20" viewBox="0 0 20 20" fill="none" xmlns="http://www.w3.org/2000/svg">
<g clip-path="url(#clip0_136_215)">
<path d="M6.15569 10.3983C6.14303 10.3983 6.13036 10.3978 6.11755 10.3971L0.611259 10.0533C0.401755 10.0403 0.213767 9.92055 0.113364 9.73638C0.0131138 9.55221 0.0143345 9.32927 0.116874 9.14617C0.145713 9.09459 0.839683 7.87099 2.16125 6.80379C3.94714 5.36183 6.02325 4.89415 8.16497 5.4514C8.34274 5.49764 8.49014 5.62154 8.56643 5.78862C8.64273 5.95571 8.63967 6.14827 8.55804 6.31276L6.70242 10.0589C6.59896 10.2677 6.38641 10.3983 6.15569 10.3983Z" fill="#FF5B5B"/>
<path d="M10.5946 20C10.4942 20 10.3938 19.9753 10.3027 19.9255C10.1186 19.8251 9.99877 19.6373 9.98565 19.4278L9.64202 13.9215C9.62676 13.6763 9.75997 13.4457 9.98016 13.3366L13.7263 11.4808C13.891 11.3994 14.0834 11.3963 14.2505 11.4726C14.4177 11.5487 14.5415 11.6963 14.5877 11.8741C15.1451 14.0158 14.6774 16.0919 13.2353 17.8778C12.1683 19.1994 10.9445 19.8932 10.8929 19.9222C10.8003 19.974 10.6975 20 10.5946 20Z" fill="#FF193D"/>
<path d="M19.0602 4.92429L15.1149 0.978971C14.9568 0.82089 14.7249 0.761991 14.5105 0.825315C11.8693 1.60657 9.70122 2.83185 8.06593 4.46698C7.7249 4.80817 7.39729 5.17789 7.09242 5.56577C6.20589 6.69293 5.46538 8.02564 4.89165 9.52695C4.5262 10.4838 4.22865 11.5089 4.00725 12.5737C3.62059 14.4336 3.59984 15.7666 3.59907 15.8224C3.59709 15.9868 3.66148 16.1451 3.77775 16.2614C3.8922 16.3759 4.04753 16.4401 4.20927 16.4401H4.21675C4.27275 16.4395 5.60576 16.4187 7.4655 16.0321C8.53026 15.8107 9.55535 15.5131 10.5124 15.1475C12.0135 14.5738 13.3462 13.8334 14.4731 12.9471C14.8613 12.642 15.231 12.3144 15.5722 11.9732C17.2075 10.338 18.4328 8.16983 19.2139 5.52869C19.2773 5.3143 19.2183 5.08237 19.0602 4.92429Z" fill="#E1F1FA"/>
<path d="M7.88238 15.1126L4.92644 12.1567C4.70824 11.9385 4.36141 11.9176 4.11849 12.108C3.92974 12.256 3.75014 12.415 3.58474 12.5804C1.52801 14.6372 1.46438 17.824 1.4627 17.9586C1.46056 18.1231 1.52495 18.2814 1.64138 18.3977C1.75582 18.5123 1.911 18.5765 2.07274 18.5765C2.07534 18.5765 2.07793 18.5765 2.08053 18.5764C2.21511 18.5747 5.40206 18.5111 7.45864 16.4544C7.62405 16.2889 7.78304 16.1093 7.93105 15.9206C8.12148 15.6777 8.10058 15.3308 7.88238 15.1126Z" fill="#FFF261"/>
<path d="M4.93881 9.40479L3.12531 11.2184C3.01086 11.3327 2.94647 11.4879 2.94647 11.6498C2.94647 11.8116 3.01086 11.9667 3.12531 12.0812L7.95792 16.9138C8.07221 17.0282 8.22739 17.0925 8.38928 17.0925C8.55118 17.0925 8.70621 17.0282 8.82065 16.9138L10.6342 15.1003L4.93881 9.40479Z" fill="#1B3B6B"/>
<path d="M12.8555 9.04495C12.3584 9.04495 11.8909 8.85132 11.5393 8.49976C10.8136 7.77405 10.8136 6.59332 11.5393 5.86746C11.8909 5.5159 12.3584 5.32227 12.8555 5.32227C13.3527 5.32227 13.8202 5.5159 14.1718 5.86746C14.5233 6.21903 14.717 6.6864 14.717 7.18369C14.717 7.68082 14.5233 8.14819 14.1718 8.49976C13.8202 8.85132 13.3527 9.04495 12.8555 9.04495Z" fill="#06CCAB"/>
<path d="M12.8554 9.64166C12.1988 9.64166 11.5816 9.38593 11.1174 8.92175C10.159 7.96335 10.159 6.4039 11.1174 5.4455C11.5816 4.98132 12.1989 4.72559 12.8554 4.72559C13.512 4.72559 14.1292 4.98132 14.5935 5.4455C15.0578 5.90982 15.3134 6.52704 15.3134 7.18363C15.3134 7.84021 15.0578 8.45743 14.5935 8.92175C14.1292 9.38593 13.512 9.64166 12.8554 9.64166ZM12.8554 5.94583C12.5249 5.94583 12.2139 6.07462 11.9801 6.30838C11.4976 6.79102 11.4976 7.57623 11.9801 8.05887C12.2139 8.29263 12.5249 8.42142 12.8554 8.42142C13.186 8.42142 13.4969 8.29263 13.7306 8.05887C13.9644 7.82511 14.0932 7.51428 14.0932 7.18363C14.0932 6.85297 13.9644 6.54215 13.7306 6.30838C13.4969 6.07462 13.186 5.94583 12.8554 5.94583Z" fill="#1B3B6B"/>
<path d="M19.8604 0.178793C19.744 0.0623683 19.5847 -0.00309197 19.4211 0.000112378C19.3306 0.00118049 17.1738 0.0374964 14.5105 0.825155L19.2139 5.52853C20.0015 2.86526 20.0378 0.708426 20.0389 0.617941C20.041 0.453451 19.9767 0.295065 19.8604 0.178793Z" fill="#FF5B5B"/>
<path d="M19.0602 4.92407L17.0876 2.95142L3.77777 16.2612C3.89221 16.3756 4.04739 16.4399 4.20914 16.4399H4.21677C4.27261 16.4393 5.60562 16.4185 7.46552 16.0319C8.53028 15.8105 9.55521 15.5129 10.5122 15.1473C12.0136 14.5736 13.3463 13.8332 14.4731 12.9468C14.8612 12.6418 15.231 12.3142 15.5721 11.973C17.2073 10.3377 18.4326 8.16962 19.2137 5.52847C19.2774 5.31409 19.2183 5.08215 19.0602 4.92407Z" fill="#CDEBFC"/>
<path d="M7.88239 15.1127L6.40442 13.6348L1.64124 18.3978V18.398C1.75583 18.5124 1.91101 18.5766 2.07275 18.5766H2.08038C2.21512 18.575 5.40192 18.5112 7.45865 16.4544C7.62406 16.289 7.78305 16.1094 7.93091 15.9207C8.12149 15.6778 8.10074 15.3309 7.88239 15.1127Z" fill="#FDBF00"/>
<path d="M7.78656 12.2524L5.54153 14.4975L7.95792 16.9139C8.07221 17.0281 8.22739 17.0925 8.38928 17.0925C8.55118 17.0925 8.70621 17.0281 8.82065 16.9139L10.6342 15.1002L7.78656 12.2524Z" fill="#001035"/>
<path d="M14.1718 5.86743C14.1716 5.86743 14.1716 5.86743 14.1716 5.86743L11.5393 8.49973H11.5395C11.8909 8.85129 12.3584 9.04492 12.8555 9.04492C13.3527 9.04492 13.8202 8.85129 14.1718 8.49973C14.5233 8.14816 14.717 7.68079 14.717 7.18366C14.7168 6.68652 14.5233 6.21899 14.1718 5.86743Z" fill="#1CADB5"/>
<path d="M14.5935 5.44556L13.7306 6.30844C13.9644 6.54221 14.0932 6.85303 14.0932 7.18369C14.0932 7.51434 13.9644 7.82517 13.7306 8.05893C13.4969 8.2927 13.186 8.42148 12.8554 8.42148C12.5247 8.42148 12.2139 8.2927 11.9801 8.05893C11.9801 8.05893 11.9801 8.05893 11.9801 8.05878L11.1172 8.92166V8.92182C11.5816 9.38599 12.1988 9.64173 12.8554 9.64173C13.512 9.64173 14.1292 9.38599 14.5935 8.92182C15.0577 8.45749 15.3134 7.84027 15.3134 7.18369C15.3134 6.5271 15.0577 5.90988 14.5935 5.44556Z" fill="#001035"/>
<path d="M19.8602 0.178711L16.8622 3.17691L19.2139 5.5286C20.0015 2.86533 20.0378 0.708496 20.0389 0.618012C20.041 0.453522 19.9767 0.295136 19.8602 0.178711Z" fill="#FF193D"/>
</g>
<defs>
<clipPath id="clip0_136_215">
<rect width="20" height="20" fill="white"/>
</clipPath>
</defs>
</svg>
