<svg width="15" class="me-1" height="17" viewBox="0 0 15 17" fill="none" xmlns="http://www.w3.org/2000/svg">
                                                            <path d="M0.374853 3.90369C0.151497 3.98703 -0.00185204 4.19372 -0.00185204 4.43374V5.58053C-0.00185204 9.66429 2.09837 13.4547 5.56206 15.6182L6.84219 16.415C7.02555 16.5283 7.25557 16.5283 7.43559 16.415L8.71572 15.6182C12.1861 13.4547 14.293 9.66429 14.293 5.58053V4.43374C14.293 4.19372 14.1396 3.98703 13.9163 3.90369C12.3494 3.31696 11.106 2.37353 10.3992 0.840035C10.3059 0.636681 10.1092 0.5 9.88584 0.5H4.3986C4.17525 0.5 3.97856 0.636681 3.88522 0.840035C3.18515 2.37686 1.94168 3.31696 0.374853 3.90369Z" fill="#E1E1E1" fill-opacity="0.2"></path>
                                                            <path d="M5.52297 9.95C6.16297 9.39667 6.6663 8.94333 7.03297 8.59C7.4063 8.23 7.7163 7.85667 7.96297 7.47C8.20964 7.08333 8.33297 6.69667 8.33297 6.31C8.33297 5.91 8.2363 5.59667 8.04297 5.37C7.8563 5.14333 7.55964 5.03 7.15297 5.03C6.75964 5.03 6.45297 5.15667 6.23297 5.41C6.01964 5.65667 5.9063 5.99 5.89297 6.41H4.79297C4.81297 5.65 5.03964 5.07 5.47297 4.67C5.91297 4.26333 6.46964 4.06 7.14297 4.06C7.86964 4.06 8.4363 4.26 8.84297 4.66C9.2563 5.06 9.46297 5.59333 9.46297 6.26C9.46297 6.74 9.33964 7.20333 9.09297 7.65C8.85297 8.09 8.56297 8.48667 8.22297 8.84C7.88964 9.18667 7.46297 9.59 6.94297 10.05L6.49297 10.45H9.66297V11.4H4.80297V10.57L5.52297 9.95Z" fill="white"></path>
                                                        </svg>