<svg width="19" height="19" viewBox="0 0 19 19" fill="none" xmlns="http://www.w3.org/2000/svg">
<path d="M17.4167 1.83333H8.08106C7.70147 0.768625 6.69341 0 5.5 0C4.29477 0 3.27947 0.784208 2.90895 1.86542C2.85542 1.8557 2.80638 1.83333 2.75 1.83333H0.916667C0.410025 1.83333 0 2.24382 0 2.75C0 3.25618 0.410025 3.66667 0.916667 3.66667H2.75C2.80638 3.66667 2.85542 3.6443 2.90895 3.63458C3.27947 4.71579 4.29477 5.5 5.5 5.5C6.69341 5.5 7.70147 4.73138 8.08106 3.66667H17.4167C17.9233 3.66667 18.3333 3.25618 18.3333 2.75C18.3333 2.24382 17.9233 1.83333 17.4167 1.83333ZM5.5 3.66667C4.99418 3.66667 4.58333 3.25536 4.58333 2.75C4.58333 2.24464 4.99418 1.83333 5.5 1.83333C6.00582 1.83333 6.41667 2.24464 6.41667 2.75C6.41667 3.25536 6.00582 3.66667 5.5 3.66667Z" fill="#8E8D9D"/>
<path d="M17.4167 14.6666H8.08106C7.70147 13.6019 6.69341 12.8333 5.5 12.8333C4.29477 12.8333 3.27947 13.6175 2.90895 14.6987C2.85542 14.689 2.80638 14.6666 2.75 14.6666H0.916667C0.410025 14.6666 0 15.0771 0 15.5833C0 16.0894 0.410025 16.4999 0.916667 16.4999H2.75C2.80638 16.4999 2.85542 16.4776 2.90895 16.4678C3.27947 17.549 4.29477 18.3333 5.5 18.3333C6.69341 18.3333 7.70147 17.5646 8.08106 16.4999H17.4167C17.9233 16.4999 18.3333 16.0894 18.3333 15.5833C18.3333 15.0771 17.9233 14.6666 17.4167 14.6666ZM5.5 16.4999C4.99418 16.4999 4.58333 16.0886 4.58333 15.5833C4.58333 15.0779 4.99418 14.6666 5.5 14.6666C6.00582 14.6666 6.41667 15.0779 6.41667 15.5833C6.41667 16.0886 6.00582 16.4999 5.5 16.4999Z" fill="#8E8D9D"/>
<path d="M17.4167 8.25008H15.5833C15.527 8.25008 15.478 8.27245 15.4245 8.28216C15.0539 7.20096 14.0386 6.41675 12.8333 6.41675C11.6399 6.41675 10.6319 7.18537 10.2523 8.25008H0.916667C0.410025 8.25008 0 8.66056 0 9.16675C0 9.67293 0.410025 10.0834 0.916667 10.0834H10.2523C10.6319 11.1481 11.6398 11.9167 12.8333 11.9167C14.0386 11.9167 15.0539 11.1325 15.4245 10.0513C15.478 10.061 15.527 10.0834 15.5833 10.0834H17.4167C17.9233 10.0834 18.3333 9.67293 18.3333 9.16675C18.3333 8.66056 17.9233 8.25008 17.4167 8.25008ZM12.8333 10.0834C12.3275 10.0834 11.9167 9.67211 11.9167 9.16675C11.9167 8.66139 12.3275 8.25008 12.8333 8.25008C13.3392 8.25008 13.75 8.66139 13.75 9.16675C13.75 9.67211 13.3392 10.0834 12.8333 10.0834Z" fill="#8E8D9D"/>
</svg>
