<svg width="10" height="23" viewBox="0 0 10 23" fill="none" xmlns="http://www.w3.org/2000/svg">
<path d="M5.3902 20.7779L9.84025 16.3278C9.94325 16.2248 10 16.0875 10 15.9409C10 15.7944 9.94325 15.657 9.84025 15.5541L9.51261 15.2264C9.29911 15.0132 8.95212 15.0132 8.73895 15.2264L5.00207 18.9633L1.26105 15.2223C1.15804 15.1193 1.02072 15.0625 0.874302 15.0625C0.727717 15.0625 0.590401 15.1193 0.487312 15.2223L0.159754 15.55C0.0567474 15.653 8.67892e-09 15.7903 1.04259e-08 15.9368C1.2173e-08 16.0833 0.0567475 16.2207 0.159754 16.3236L4.61386 20.7779C4.7172 20.8811 4.85516 20.9377 5.00183 20.9374C5.14906 20.9377 5.28695 20.8811 5.3902 20.7779Z" fill="#8E8D9D"/>
<path d="M4.6098 2.2221L0.159755 6.67223C0.0567475 6.77515 -4.4802e-08 6.91255 -3.83982e-08 7.05905C-3.19943e-08 7.20555 0.0567475 7.34295 0.159755 7.44588L0.487394 7.7736C0.700889 7.98685 1.04788 7.98685 1.26105 7.7736L4.99793 4.03672L8.73895 7.77774C8.84196 7.88067 8.97928 7.9375 9.1257 7.9375C9.27228 7.9375 9.4096 7.88067 9.51269 7.77774L9.84025 7.45002C9.94325 7.34702 10 7.2097 10 7.0632C10 6.91669 9.94325 6.7793 9.84025 6.67637L5.38613 2.2221C5.2828 2.11893 5.14484 2.06226 4.99817 2.06259C4.85094 2.06226 4.71305 2.11893 4.6098 2.2221Z" fill="#8E8D9D"/>
</svg>
