<svg width="15" class="me-1" height="17" viewBox="0 0 15 17" fill="none" xmlns="http://www.w3.org/2000/svg">
                                                            <path d="M0.374853 3.90369C0.151497 3.98703 -0.00185204 4.19372 -0.00185204 4.43374V5.58053C-0.00185204 9.66429 2.09837 13.4547 5.56206 15.6182L6.84219 16.415C7.02555 16.5283 7.25557 16.5283 7.43559 16.415L8.71572 15.6182C12.1861 13.4547 14.293 9.66429 14.293 5.58053V4.43374C14.293 4.19372 14.1396 3.98703 13.9163 3.90369C12.3494 3.31696 11.106 2.37353 10.3992 0.840035C10.3059 0.636681 10.1092 0.5 9.88584 0.5H4.3986C4.17525 0.5 3.97856 0.636681 3.88522 0.840035C3.18515 2.37686 1.94168 3.31696 0.374853 3.90369Z" fill="#403E51"></path>
                                                            <path d="M4.87297 6.01C4.91297 5.39 5.14964 4.90667 5.58297 4.56C6.02297 4.21333 6.58297 4.04 7.26297 4.04C7.72964 4.04 8.13297 4.12333 8.47297 4.29C8.81297 4.45667 9.06964 4.68333 9.24297 4.97C9.4163 5.25667 9.50297 5.58 9.50297 5.94C9.50297 6.35333 9.39297 6.70667 9.17297 7C8.95297 7.29333 8.68964 7.49 8.38297 7.59V7.63C8.7763 7.75 9.08297 7.97 9.30297 8.29C9.52297 8.60333 9.63297 9.00667 9.63297 9.5C9.63297 9.89333 9.54297 10.2433 9.36297 10.55C9.18297 10.8567 8.9163 11.1 8.56297 11.28C8.20964 11.4533 7.7863 11.54 7.29297 11.54C6.57297 11.54 5.97964 11.3567 5.51297 10.99C5.05297 10.6167 4.8063 10.0833 4.77297 9.39H5.87297C5.89964 9.74333 6.0363 10.0333 6.28297 10.26C6.52964 10.48 6.86297 10.59 7.28297 10.59C7.68964 10.59 8.00297 10.48 8.22297 10.26C8.44297 10.0333 8.55297 9.74333 8.55297 9.39C8.55297 8.92333 8.40297 8.59333 8.10297 8.4C7.80964 8.2 7.3563 8.1 6.74297 8.1H6.48297V7.16H6.75297C7.29297 7.15333 7.70297 7.06333 7.98297 6.89C8.26964 6.71667 8.41297 6.44333 8.41297 6.07C8.41297 5.75 8.30964 5.49667 8.10297 5.31C7.8963 5.11667 7.60297 5.02 7.22297 5.02C6.84964 5.02 6.55964 5.11667 6.35297 5.31C6.1463 5.49667 6.02297 5.73 5.98297 6.01H4.87297Z" fill="white"></path>
                                                        </svg>